<svg width="63" height="12" viewBox="0 0 63 12" fill="none" xmlns="http://www.w3.org/2000/svg">
<path d="M12.08 5.52V5.72H14.62V5.92H13.08V6.12H12.36V6.32H12.98V6.44C12.98 6.52 12.9733 6.58 12.96 6.62H13.24C13.1467 6.86 12.9733 6.98 12.72 6.98H6.76V7.02H7.56V7.08C7.56 7.13333 7.56 7.19333 7.56 7.26C7.56 7.31333 7.56667 7.36667 7.58 7.42H6.5C6.5 7.46 6.5 7.5 6.5 7.54C6.51333 7.56667 6.52 7.59333 6.52 7.62H6.4C6.4 7.67333 6.41333 7.74 6.44 7.82H6.52C6.58667 8.00667 6.69333 8.14 6.84 8.22H6.3C6.39333 8.27333 6.52 8.3 6.68 8.3C6.78667 8.3 6.87333 8.27333 6.94 8.22H7.88C7.93333 8.19333 7.98 8.15333 8.02 8.1C8.07333 8.04667 8.13333 7.99333 8.2 7.94L8.32 7.82H7.94C8.06 7.71333 8.24 7.66 8.48 7.66H12.26C12.42 7.66 12.54 7.71333 12.62 7.82H12.98C13.0467 7.91333 13.08 8.00667 13.08 8.1C13.0667 8.12667 13.06 8.16667 13.06 8.22H12.12C12.0933 8.35333 12.0533 8.48667 12 8.62H11.02C10.98 8.68667 10.9467 8.75333 10.92 8.82H13.4C13.3733 8.88667 13.3333 8.95333 13.28 9.02C13.24 9.08667 13.1933 9.15333 13.14 9.22H12.54C12.4867 9.3 12.4333 9.36667 12.38 9.42H12.52C12.5067 9.43333 12.4933 9.44667 12.48 9.46C12.4667 9.47333 12.4533 9.49333 12.44 9.52H11.32L11.22 9.62H11.56C11.5467 9.63333 11.5267 9.64667 11.5 9.66C11.4867 9.67333 11.4733 9.69333 11.46 9.72H12.08C11.9867 9.81333 11.8667 9.91333 11.72 10.02H11.42C11.4067 10.0333 11.3867 10.0467 11.36 10.06C11.3333 10.0733 11.3067 10.0933 11.28 10.12H11.06C10.8467 10.2667 10.6133 10.4 10.36 10.52H10.1C9.94 10.6 9.76667 10.6733 9.58 10.74C9.40667 10.8067 9.22 10.8667 9.02 10.92H8.7C8.55333 10.96 8.4 10.9933 8.24 11.02C8.08 11.06 7.90667 11.0933 7.72 11.12H8.56C8.37333 11.1467 8.18 11.1667 7.98 11.18C7.78 11.1933 7.56667 11.2 7.34 11.2C7.12667 11.2 6.91333 11.1933 6.7 11.18C6.48667 11.1667 6.28 11.1467 6.08 11.12H5.24C5.06667 11.0933 4.9 11.06 4.74 11.02C4.58 10.9933 4.42 10.96 4.26 10.92H4.58C4.22 10.8267 3.88 10.6933 3.56 10.52H3.82C3.58 10.3867 3.37333 10.2533 3.2 10.12H3.42C3.39333 10.0933 3.36667 10.0733 3.34 10.06C3.32667 10.0467 3.30667 10.0333 3.28 10.02H3.58C3.52667 9.96667 3.47333 9.92 3.42 9.88C3.36667 9.82667 3.31333 9.77333 3.26 9.72H2.62L2.52 9.62H2.18C2.16667 9.59333 2.15333 9.57333 2.14 9.56C2.12667 9.54667 2.11333 9.53333 2.1 9.52H3.2C3.18667 9.49333 3.16 9.46 3.12 9.42H2.98C2.95333 9.39333 2.92667 9.36 2.9 9.32C2.87333 9.28 2.84667 9.24667 2.82 9.22H3.42C3.38 9.15333 3.34 9.08667 3.3 9.02C3.26 8.95333 3.22 8.88667 3.18 8.82H0.68C0.64 8.75333 0.606667 8.68667 0.58 8.62H1.56L1.38 8.22H1.92C1.89333 8.15333 1.86667 8.08667 1.84 8.02C1.82667 7.95333 1.80667 7.88667 1.78 7.82H1.72L1.66 7.62H1.8L1.74 7.42H2.82C2.80667 7.35333 2.79333 7.28667 2.78 7.22C2.76667 7.15333 2.75333 7.08667 2.74 7.02H1.94L1.9 6.62H1.62C1.62 6.56667 1.61333 6.52 1.6 6.48C1.6 6.42667 1.6 6.37333 1.6 6.32H0.98V6.12H1.68V5.92H3.22V5.72H0.68V5.68C0.68 5.61333 0.686667 5.56 0.7 5.52H4.16C4.16 5.46667 4.16 5.42 4.16 5.38C4.17333 5.32667 4.18 5.27333 4.18 5.22H1C1 5.19333 1 5.17333 1 5.16C1.01333 5.14667 1.02 5.13333 1.02 5.12H2.34C2.34 5.08 2.34667 5.04667 2.36 5.02H3.84V4.92H1.02C1.03333 4.85333 1.04667 4.78667 1.06 4.72C1.07333 4.65333 1.08667 4.58667 1.1 4.52H1.86C1.86 4.46667 1.87333 4.4 1.9 4.32H1.24C1.24 4.29333 1.24 4.27333 1.24 4.26C1.25333 4.24667 1.26 4.23333 1.26 4.22H1.74C1.74 4.19333 1.74 4.17333 1.74 4.16C1.75333 4.14667 1.76 4.13333 1.76 4.12H1.26L1.3 4.02H1.78L1.84 3.82H2.22L2.34 3.52H1.98C2.00667 3.45333 2.03333 3.38667 2.06 3.32C2.08667 3.24 2.12 3.17333 2.16 3.12H2.1L2.14 3.02H1.64C1.66667 2.96667 1.68 2.93333 1.68 2.92H1.22L1.34 2.72H2.32C2.33333 2.69333 2.36 2.66 2.4 2.62H2.76C2.81333 2.55333 2.86 2.48667 2.9 2.42C2.95333 2.34 3.00667 2.27333 3.06 2.22H2.7C2.74 2.16667 2.78 2.12 2.82 2.08C2.87333 2.02667 2.92667 1.97333 2.98 1.92H3.76L3.96 1.72H2.78C2.95333 1.57333 3.12667 1.44 3.3 1.32H4.4L4.56 1.22H4.2C4.30667 1.15333 4.43333 1.08667 4.58 1.02H5.36C5.72 0.846666 6.09333 0.713333 6.48 0.619999H5.36C5.65333 0.553332 5.96 0.499999 6.28 0.46C6.6 0.42 6.93333 0.399999 7.28 0.399999C7.62667 0.399999 7.95333 0.42 8.26 0.46C8.56667 0.499999 8.86 0.553332 9.14 0.619999H10.24C10.44 0.673332 10.6267 0.733332 10.8 0.799999C10.9867 0.866666 11.1667 0.94 11.34 1.02H10.56C10.6267 1.04667 10.6867 1.08 10.74 1.12C10.8067 1.14667 10.8667 1.18 10.92 1.22H11.28C11.3067 1.23333 11.3333 1.24667 11.36 1.26C11.3867 1.27333 11.4133 1.29333 11.44 1.32H10.34C10.5133 1.44 10.6867 1.57333 10.86 1.72H12.06L12.26 1.92H11.48C11.5333 1.97333 11.58 2.02667 11.62 2.08C11.6733 2.12 11.72 2.16667 11.76 2.22H12.12C12.1733 2.27333 12.22 2.34 12.26 2.42C12.3133 2.48667 12.3667 2.55333 12.42 2.62H12.04C12.0533 2.64667 12.08 2.68 12.12 2.72H11.12L11.24 2.92H11.7L11.76 3.02H12.28C12.28 3.03333 12.2933 3.06667 12.32 3.12H12.38L12.56 3.52L12.68 3.82H12.7L12.76 4.02H12.52L12.56 4.12H12.74L12.78 4.22H13.1C13.1 4.23333 13.1 4.24667 13.1 4.26C13.1133 4.27333 13.12 4.29333 13.12 4.32H12.96L13.02 4.52H12.26L12.32 4.92H15.14V5.02H13.66C13.66 5.03333 13.66 5.04667 13.66 5.06C13.6733 5.07333 13.68 5.09333 13.68 5.12H12.34C12.3533 5.14667 12.36 5.18 12.36 5.22H15.54C15.54 5.27333 15.54 5.32667 15.54 5.38C15.54 5.42 15.5467 5.46667 15.56 5.52H12.08ZM6 4.22V4.32H6.64V4.48H8.24V4.32H8.38V4.22H8.06V4.12H7.86C7.86 4.08 7.85333 4.04667 7.84 4.02H8.08C8.08 3.96667 8.06667 3.9 8.04 3.82H8.02C8.00667 3.7 7.96667 3.6 7.9 3.52C7.76667 3.30667 7.56 3.2 7.28 3.2C7.01333 3.2 6.81333 3.30667 6.68 3.52H7.04C6.98667 3.6 6.94667 3.7 6.92 3.82H6.52C6.52 3.84667 6.51333 3.88 6.5 3.92C6.5 3.94667 6.49333 3.98 6.48 4.02H6C6 4.06 5.99333 4.09333 5.98 4.12H6.48V4.22H6ZM28.2519 5.52V5.72H30.7919V5.92H29.2519V6.12H28.5319V6.32H29.1519V6.44C29.1519 6.52 29.1452 6.58 29.1319 6.62H29.4119C29.3185 6.86 29.1452 6.98 28.8919 6.98H22.9319V7.02H23.7319V7.08C23.7319 7.13333 23.7319 7.19333 23.7319 7.26C23.7319 7.31333 23.7385 7.36667 23.7519 7.42H22.6719C22.6719 7.46 22.6719 7.5 22.6719 7.54C22.6852 7.56667 22.6919 7.59333 22.6919 7.62H22.5719C22.5719 7.67333 22.5852 7.74 22.6119 7.82H22.6919C22.7585 8.00667 22.8652 8.14 23.0119 8.22H22.4719C22.5652 8.27333 22.6919 8.3 22.8519 8.3C22.9585 8.3 23.0452 8.27333 23.1119 8.22H24.0519C24.1052 8.19333 24.1519 8.15333 24.1919 8.1C24.2452 8.04667 24.3052 7.99333 24.3719 7.94L24.4919 7.82H24.1119C24.2319 7.71333 24.4119 7.66 24.6519 7.66H28.4319C28.5919 7.66 28.7119 7.71333 28.7919 7.82H29.1519C29.2185 7.91333 29.2519 8.00667 29.2519 8.1C29.2385 8.12667 29.2319 8.16667 29.2319 8.22H28.2919C28.2652 8.35333 28.2252 8.48667 28.1719 8.62H27.1919C27.1519 8.68667 27.1185 8.75333 27.0919 8.82H29.5719C29.5452 8.88667 29.5052 8.95333 29.4519 9.02C29.4119 9.08667 29.3652 9.15333 29.3119 9.22H28.7119C28.6585 9.3 28.6052 9.36667 28.5519 9.42H28.6919C28.6785 9.43333 28.6652 9.44667 28.6519 9.46C28.6385 9.47333 28.6252 9.49333 28.6119 9.52H27.4919L27.3919 9.62H27.7319C27.7185 9.63333 27.6985 9.64667 27.6719 9.66C27.6585 9.67333 27.6452 9.69333 27.6319 9.72H28.2519C28.1585 9.81333 28.0385 9.91333 27.8919 10.02H27.5919C27.5785 10.0333 27.5585 10.0467 27.5319 10.06C27.5052 10.0733 27.4785 10.0933 27.4519 10.12H27.2319C27.0185 10.2667 26.7852 10.4 26.5319 10.52H26.2719C26.1119 10.6 25.9385 10.6733 25.7519 10.74C25.5785 10.8067 25.3919 10.8667 25.1919 10.92H24.8719C24.7252 10.96 24.5719 10.9933 24.4119 11.02C24.2519 11.06 24.0785 11.0933 23.8919 11.12H24.7319C24.5452 11.1467 24.3519 11.1667 24.1519 11.18C23.9519 11.1933 23.7385 11.2 23.5119 11.2C23.2985 11.2 23.0852 11.1933 22.8719 11.18C22.6585 11.1667 22.4519 11.1467 22.2519 11.12H21.4119C21.2385 11.0933 21.0719 11.06 20.9119 11.02C20.7519 10.9933 20.5919 10.96 20.4319 10.92H20.7519C20.3919 10.8267 20.0519 10.6933 19.7319 10.52H19.9919C19.7519 10.3867 19.5452 10.2533 19.3719 10.12H19.5919C19.5652 10.0933 19.5385 10.0733 19.5119 10.06C19.4985 10.0467 19.4785 10.0333 19.4519 10.02H19.7519C19.6985 9.96667 19.6452 9.92 19.5919 9.88C19.5385 9.82667 19.4852 9.77333 19.4319 9.72H18.7919L18.6919 9.62H18.3519C18.3385 9.59333 18.3252 9.57333 18.3119 9.56C18.2985 9.54667 18.2852 9.53333 18.2719 9.52H19.3719C19.3585 9.49333 19.3319 9.46 19.2919 9.42H19.1519C19.1252 9.39333 19.0985 9.36 19.0719 9.32C19.0452 9.28 19.0185 9.24667 18.9919 9.22H19.5919C19.5519 9.15333 19.5119 9.08667 19.4719 9.02C19.4319 8.95333 19.3919 8.88667 19.3519 8.82H16.8519C16.8119 8.75333 16.7785 8.68667 16.7519 8.62H17.7319L17.5519 8.22H18.0919C18.0652 8.15333 18.0385 8.08667 18.0119 8.02C17.9985 7.95333 17.9785 7.88667 17.9519 7.82H17.8919L17.8319 7.62H17.9719L17.9119 7.42H18.9919C18.9785 7.35333 18.9652 7.28667 18.9519 7.22C18.9385 7.15333 18.9252 7.08667 18.9119 7.02H18.1119L18.0719 6.62H17.7919C17.7919 6.56667 17.7852 6.52 17.7719 6.48C17.7719 6.42667 17.7719 6.37333 17.7719 6.32H17.1519V6.12H17.8519V5.92H19.3919V5.72H16.8519V5.68C16.8519 5.61333 16.8585 5.56 16.8719 5.52H20.3319C20.3319 5.46667 20.3319 5.42 20.3319 5.38C20.3452 5.32667 20.3519 5.27333 20.3519 5.22H17.1719C17.1719 5.19333 17.1719 5.17333 17.1719 5.16C17.1852 5.14667 17.1919 5.13333 17.1919 5.12H18.5119C18.5119 5.08 18.5185 5.04667 18.5319 5.02H20.0119V4.92H17.1919C17.2052 4.85333 17.2185 4.78667 17.2319 4.72C17.2452 4.65333 17.2585 4.58667 17.2719 4.52H18.0319C18.0319 4.46667 18.0452 4.4 18.0719 4.32H17.4119C17.4119 4.29333 17.4119 4.27333 17.4119 4.26C17.4252 4.24667 17.4319 4.23333 17.4319 4.22H17.9119C17.9119 4.19333 17.9119 4.17333 17.9119 4.16C17.9252 4.14667 17.9319 4.13333 17.9319 4.12H17.4319L17.4719 4.02H17.9519L18.0119 3.82H18.3919L18.5119 3.52H18.1519C18.1785 3.45333 18.2052 3.38667 18.2319 3.32C18.2585 3.24 18.2919 3.17333 18.3319 3.12H18.2719L18.3119 3.02H17.8119C17.8385 2.96667 17.8519 2.93333 17.8519 2.92H17.3919L17.5119 2.72H18.4919C18.5052 2.69333 18.5319 2.66 18.5719 2.62H18.9319C18.9852 2.55333 19.0319 2.48667 19.0719 2.42C19.1252 2.34 19.1785 2.27333 19.2319 2.22H18.8719C18.9119 2.16667 18.9519 2.12 18.9919 2.08C19.0452 2.02667 19.0985 1.97333 19.1519 1.92H19.9319L20.1319 1.72H18.9519C19.1252 1.57333 19.2985 1.44 19.4719 1.32H20.5719L20.7319 1.22H20.3719C20.4785 1.15333 20.6052 1.08667 20.7519 1.02H21.5319C21.8919 0.846666 22.2652 0.713333 22.6519 0.619999H21.5319C21.8252 0.553332 22.1319 0.499999 22.4519 0.46C22.7719 0.42 23.1052 0.399999 23.4519 0.399999C23.7985 0.399999 24.1252 0.42 24.4319 0.46C24.7385 0.499999 25.0319 0.553332 25.3119 0.619999H26.4119C26.6119 0.673332 26.7985 0.733332 26.9719 0.799999C27.1585 0.866666 27.3385 0.94 27.5119 1.02H26.7319C26.7985 1.04667 26.8585 1.08 26.9119 1.12C26.9785 1.14667 27.0385 1.18 27.0919 1.22H27.4519C27.4785 1.23333 27.5052 1.24667 27.5319 1.26C27.5585 1.27333 27.5852 1.29333 27.6119 1.32H26.5119C26.6852 1.44 26.8585 1.57333 27.0319 1.72H28.2319L28.4319 1.92H27.6519C27.7052 1.97333 27.7519 2.02667 27.7919 2.08C27.8452 2.12 27.8919 2.16667 27.9319 2.22H28.2919C28.3452 2.27333 28.3919 2.34 28.4319 2.42C28.4852 2.48667 28.5385 2.55333 28.5919 2.62H28.2119C28.2252 2.64667 28.2519 2.68 28.2919 2.72H27.2919L27.4119 2.92H27.8719L27.9319 3.02H28.4519C28.4519 3.03333 28.4652 3.06667 28.4919 3.12H28.5519L28.7319 3.52L28.8519 3.82H28.8719L28.9319 4.02H28.6919L28.7319 4.12H28.9119L28.9519 4.22H29.2719C29.2719 4.23333 29.2719 4.24667 29.2719 4.26C29.2852 4.27333 29.2919 4.29333 29.2919 4.32H29.1319L29.1919 4.52H28.4319L28.4919 4.92H31.3119V5.02H29.8319C29.8319 5.03333 29.8319 5.04667 29.8319 5.06C29.8452 5.07333 29.8519 5.09333 29.8519 5.12H28.5119C28.5252 5.14667 28.5319 5.18 28.5319 5.22H31.7119C31.7119 5.27333 31.7119 5.32667 31.7119 5.38C31.7119 5.42 31.7185 5.46667 31.7319 5.52H28.2519ZM22.1719 4.22V4.32H22.8119V4.48H24.4119V4.32H24.5519V4.22H24.2319V4.12H24.0319C24.0319 4.08 24.0252 4.04667 24.0119 4.02H24.2519C24.2519 3.96667 24.2385 3.9 24.2119 3.82H24.1919C24.1785 3.7 24.1385 3.6 24.0719 3.52C23.9385 3.30667 23.7319 3.2 23.4519 3.2C23.1852 3.2 22.9852 3.30667 22.8519 3.52H23.2119C23.1585 3.6 23.1185 3.7 23.0919 3.82H22.6919C22.6919 3.84667 22.6852 3.88 22.6719 3.92C22.6719 3.94667 22.6652 3.98 22.6519 4.02H22.1719C22.1719 4.06 22.1652 4.09333 22.1519 4.12H22.6519V4.22H22.1719ZM45.7438 9.22H44.9238C44.8438 9.35333 44.7504 9.48667 44.6437 9.62H45.0038C44.9904 9.64667 44.9638 9.68 44.9238 9.72H44.0438C43.9904 9.77333 43.9371 9.82667 43.8838 9.88C43.8438 9.92 43.7904 9.96667 43.7238 10.02H43.7038C43.6371 10.0733 43.5638 10.1267 43.4838 10.18C43.4171 10.22 43.3438 10.2667 43.2638 10.32H42.9038C42.7838 10.4 42.6504 10.4733 42.5038 10.54C42.3571 10.5933 42.2104 10.6533 42.0638 10.72H41.9838C41.9438 10.7333 41.8971 10.7467 41.8438 10.76C41.8038 10.7733 41.7504 10.7933 41.6838 10.82H43.9638C43.9104 10.8333 43.8504 10.8467 43.7838 10.86C43.7304 10.8733 43.6704 10.8933 43.6038 10.92H42.6038C42.4304 10.96 42.2504 10.9933 42.0638 11.02C41.8771 11.06 41.6838 11.0933 41.4838 11.12H40.8838C40.6704 11.1467 40.4438 11.1667 40.2038 11.18C39.9638 11.1933 39.7104 11.2 39.4438 11.2C39.1904 11.2 38.9504 11.1933 38.7238 11.18C38.5104 11.1667 38.3038 11.1467 38.1038 11.12H38.6838C38.4971 11.0933 38.3171 11.06 38.1438 11.02C37.9704 10.9933 37.8038 10.96 37.6438 10.92H38.6438L38.3038 10.82H36.0238C35.9838 10.7933 35.9371 10.7733 35.8838 10.76C35.8438 10.7467 35.7971 10.7333 35.7438 10.72H35.8038C35.6571 10.6533 35.5104 10.5867 35.3638 10.52C35.2304 10.4533 35.0971 10.3867 34.9638 10.32H35.3238C35.2438 10.2667 35.1638 10.22 35.0838 10.18C35.0171 10.1267 34.9504 10.0733 34.8838 10.02H34.9238C34.8571 9.96667 34.7971 9.92 34.7438 9.88C34.6904 9.82667 34.6371 9.77333 34.5838 9.72H35.4438C35.4304 9.69333 35.4171 9.67333 35.4038 9.66C35.3904 9.64667 35.3771 9.63333 35.3638 9.62H34.9838C34.9304 9.55333 34.8771 9.48667 34.8238 9.42C34.7704 9.35333 34.7171 9.28667 34.6637 9.22H35.5038C35.4504 9.15333 35.4104 9.08667 35.3838 9.02C35.3571 8.94 35.3304 8.87333 35.3038 8.82H34.9238C34.8971 8.76667 34.8838 8.73333 34.8838 8.72H34.2638L34.2038 8.52H33.7438C33.7304 8.48 33.7238 8.42 33.7238 8.34C33.7238 8.23333 33.7304 8.16 33.7438 8.12H33.8838C33.9504 7.96 34.0571 7.86 34.2038 7.82H34.1638C34.1904 7.80667 34.2371 7.8 34.3038 7.8H37.8638C37.8771 7.8 37.8904 7.80667 37.9038 7.82C37.9304 7.82 37.9504 7.82 37.9638 7.82H38.0038C38.1104 7.84667 38.2038 7.88667 38.2838 7.94C38.3771 7.99333 38.4704 8.05333 38.5638 8.12H38.4438C38.5504 8.18667 38.6638 8.25333 38.7838 8.32C38.9038 8.37333 39.0438 8.4 39.2038 8.4C39.3104 8.4 39.4104 8.38 39.5038 8.34C39.5971 8.28667 39.6504 8.21333 39.6638 8.12H39.7238V8.1C39.7238 7.98 39.6971 7.88667 39.6438 7.82C39.5904 7.74 39.5038 7.67333 39.3838 7.62H39.1438C39.0104 7.55333 38.8304 7.48667 38.6038 7.42C38.3904 7.35333 38.0904 7.28667 37.7038 7.22H37.8838L37.5638 7.16C37.4571 7.13333 37.3504 7.11333 37.2438 7.1C37.1371 7.07333 37.0304 7.04667 36.9238 7.02H37.0038L36.6638 6.92H36.7038C36.5304 6.86667 36.3638 6.80667 36.2038 6.74C36.0438 6.67333 35.8904 6.6 35.7438 6.52H35.8238L35.3438 6.22H35.3038C35.2104 6.15333 35.1238 6.08667 35.0438 6.02C34.9771 5.95333 34.9104 5.88667 34.8438 5.82H34.4238C34.4104 5.79333 34.3971 5.77333 34.3838 5.76C34.3704 5.74667 34.3571 5.73333 34.3438 5.72H34.5238C34.4838 5.68 34.4571 5.64667 34.4438 5.62H33.8838L33.6638 5.32H34.5238L34.4038 5.12H34.1238C34.0571 4.97333 34.0038 4.84 33.9638 4.72H34.0838C34.0838 4.69333 34.0771 4.67333 34.0638 4.66C34.0638 4.64667 34.0638 4.63333 34.0638 4.62H35.0038C35.0038 4.56667 34.9904 4.5 34.9638 4.42H33.2037C33.2037 4.36667 33.2037 4.32 33.2037 4.28C33.1904 4.22667 33.1771 4.17333 33.1637 4.12H33.1837L33.1637 3.92H34.5038C34.4904 3.89333 34.4838 3.86 34.4838 3.82C34.4838 3.76667 34.4838 3.72 34.4838 3.68C34.4971 3.62667 34.5038 3.57333 34.5038 3.52H33.5638L33.5838 3.32H34.4838L34.5438 3.12H34.1438C34.1571 3.09333 34.1704 3.06 34.1838 3.02C34.1971 2.98 34.2104 2.94667 34.2238 2.92H34.0638C34.0904 2.86667 34.1171 2.82 34.1438 2.78C34.1704 2.72667 34.1904 2.67333 34.2038 2.62H34.2838L34.4038 2.42H34.3838C34.4104 2.36667 34.4438 2.32 34.4838 2.28C34.5238 2.22667 34.5638 2.17333 34.6038 2.12C34.6438 2.06667 34.6838 2.02 34.7238 1.98C34.7638 1.92667 34.8104 1.87333 34.8638 1.82H34.8238L34.9238 1.72H34.9038C34.9171 1.69333 34.9304 1.67333 34.9438 1.66C34.9704 1.64667 34.9904 1.63333 35.0038 1.62H35.0438L35.2838 1.42C35.3104 1.39333 35.3304 1.37333 35.3438 1.36C35.3704 1.34667 35.3971 1.33333 35.4238 1.32H35.0438C35.2704 1.17333 35.5171 1.04 35.7838 0.92H36.4038C36.4438 0.893333 36.4838 0.873333 36.5238 0.859999C36.5638 0.846666 36.6104 0.833333 36.6638 0.82H35.3038C35.3571 0.793333 35.4038 0.773333 35.4438 0.76C35.4971 0.746666 35.5504 0.733333 35.6038 0.72H36.4638C36.7971 0.613333 37.1504 0.533333 37.5238 0.48C37.9104 0.426666 38.3171 0.399999 38.7438 0.399999C39.1838 0.399999 39.5971 0.426666 39.9838 0.48C40.3704 0.533333 40.7304 0.613333 41.0638 0.72H40.2038C40.2571 0.733333 40.3038 0.746666 40.3438 0.76C40.3971 0.773333 40.4504 0.793333 40.5038 0.82H41.8438L42.1238 0.92H41.5038C41.6504 0.973333 41.7904 1.04 41.9238 1.12C42.0571 1.18667 42.1838 1.25333 42.3038 1.32H42.6838L42.8438 1.42H42.8638C42.9171 1.44667 42.9638 1.48 43.0038 1.52C43.0571 1.56 43.1038 1.59333 43.1438 1.62H43.1238L43.2438 1.72H43.2638L43.3838 1.82H43.4238C43.5438 1.91333 43.6438 2.01333 43.7238 2.12C43.8304 2.21333 43.9104 2.31333 43.9638 2.42H43.9838L44.1038 2.62H44.0038C44.0304 2.67333 44.0571 2.72667 44.0838 2.78C44.1104 2.82 44.1304 2.86667 44.1438 2.92H44.2838L44.3438 3.12H44.7238L44.7438 3.26V3.32H45.0838C45.0838 3.37333 45.0704 3.44 45.0438 3.52C44.9504 3.70667 44.8171 3.8 44.6437 3.8H41.2838C41.1504 3.8 41.0238 3.77333 40.9038 3.72C40.7971 3.65333 40.6904 3.58667 40.5838 3.52C40.4904 3.45333 40.3838 3.38667 40.2638 3.32H39.9238C39.7904 3.24 39.6438 3.2 39.4838 3.2C39.3504 3.2 39.2438 3.24 39.1638 3.32H38.2838C38.2171 3.38667 38.1838 3.45333 38.1838 3.52H39.1238C39.1238 3.58667 39.1371 3.65333 39.1638 3.72C39.1904 3.78667 39.2504 3.85333 39.3438 3.92H38.0238C38.0904 3.94667 38.1638 3.98 38.2438 4.02C38.3238 4.06 38.4238 4.09333 38.5438 4.12H38.5238C38.6838 4.17333 38.8838 4.22 39.1238 4.26C39.3771 4.3 39.6704 4.34667 40.0038 4.4C40.0304 4.4 40.0504 4.40667 40.0638 4.42C40.0904 4.42 40.1104 4.42 40.1238 4.42H41.8838C42.0438 4.44667 42.1971 4.48 42.3438 4.52C42.5038 4.54667 42.6504 4.58 42.7838 4.62H41.8438C41.8971 4.63333 41.9438 4.64667 41.9838 4.66C42.0371 4.67333 42.0904 4.69333 42.1438 4.72H42.0238C42.1971 4.77333 42.3504 4.83333 42.4838 4.9C42.6304 4.96667 42.7704 5.04 42.9038 5.12H43.2038L43.5238 5.32H42.6638C42.7304 5.37333 42.7971 5.42667 42.8638 5.48C42.9304 5.52 42.9904 5.56667 43.0438 5.62H43.6038L43.7038 5.72H43.5238L43.6237 5.82H44.0238C44.1704 5.96667 44.2771 6.1 44.3438 6.22H44.3838C44.4238 6.27333 44.4571 6.32667 44.4838 6.38C44.5104 6.42 44.5371 6.46667 44.5638 6.52H44.4838C44.5104 6.58667 44.5371 6.65333 44.5638 6.72C44.6038 6.78667 44.6304 6.85333 44.6437 6.92H44.5838L44.6238 7.02H44.5438C44.5571 7.04667 44.5638 7.08 44.5638 7.12C44.5638 7.16 44.5704 7.19333 44.5838 7.22H44.4038C44.4438 7.35333 44.4638 7.48667 44.4638 7.62H44.7238V7.76C44.7238 7.81333 44.7171 7.87333 44.7038 7.94C44.7038 7.99333 44.7038 8.05333 44.7038 8.12H44.6437C44.6304 8.18667 44.6171 8.25333 44.6038 8.32C44.6038 8.38667 44.5904 8.45333 44.5638 8.52H45.0238C45.0238 8.58667 45.0038 8.65333 44.9638 8.72H45.6038C45.5771 8.77333 45.5638 8.80667 45.5638 8.82H45.9438C45.9171 8.88667 45.8838 8.95333 45.8438 9.02C45.8171 9.08667 45.7838 9.15333 45.7438 9.22ZM60.2316 9.92V10.12H61.9716V10.46C61.9716 10.4867 61.9649 10.5067 61.9516 10.52H61.0116C60.9849 10.7067 60.8982 10.84 60.7516 10.92H60.5716C60.5049 10.9733 60.4116 11 60.2916 11H56.7916C56.6716 11 56.5782 10.9733 56.5116 10.92H56.6716C56.5382 10.8267 56.4582 10.6933 56.4316 10.52H57.3916V10.12H56.5916C56.5249 10.1867 56.4516 10.2533 56.3716 10.32C56.3049 10.3867 56.2316 10.4533 56.1516 10.52H55.9316C55.6916 10.6933 55.4516 10.8267 55.2116 10.92H54.5716C54.4782 10.96 54.3716 10.9933 54.2516 11.02C54.1449 11.06 54.0316 11.0933 53.9116 11.12H53.7516C53.6182 11.1467 53.4782 11.1667 53.3316 11.18C53.1982 11.1933 53.0582 11.2 52.9116 11.2C52.7516 11.2 52.5916 11.1933 52.4316 11.18C52.2849 11.1667 52.1382 11.1467 51.9916 11.12H52.1516C52.0182 11.0933 51.8849 11.06 51.7516 11.02C51.6316 10.9933 51.5116 10.96 51.3916 10.92H52.0116C51.7182 10.8133 51.4516 10.68 51.2116 10.52H51.4316C51.3382 10.4533 51.2516 10.3867 51.1716 10.32C51.0916 10.2533 51.0116 10.1867 50.9316 10.12H49.9316L49.7516 9.92C49.7382 9.89333 49.7182 9.86 49.6916 9.82C49.6649 9.78 49.6382 9.74667 49.6116 9.72H50.2116C50.1849 9.66667 50.1516 9.62 50.1116 9.58C50.0849 9.52667 50.0582 9.47333 50.0316 9.42H49.8516C49.8516 9.40667 49.8382 9.37333 49.8116 9.32H49.6316L49.5716 9.22H49.5916L49.4716 8.92H49.3716C49.3582 8.86667 49.3449 8.82 49.3316 8.78C49.3182 8.72667 49.3049 8.67333 49.2916 8.62H48.5316C48.4916 8.47333 48.4716 8.34 48.4716 8.22H49.1316V8.02C49.1316 7.95333 49.1316 7.88667 49.1316 7.82C49.1316 7.74 49.1382 7.67333 49.1516 7.62H49.7516C49.7649 7.55333 49.7782 7.48667 49.7916 7.42C49.8049 7.34 49.8182 7.27333 49.8316 7.22H49.2716L49.3116 7.12H49.3316L49.3716 7.02H49.3516C49.3782 6.96667 49.4049 6.92 49.4316 6.88C49.4582 6.82667 49.4782 6.77333 49.4916 6.72H48.3116L48.4316 6.52H47.9916C48.0316 6.48 48.0582 6.44667 48.0716 6.42H48.7916C48.8182 6.39333 48.8449 6.36 48.8716 6.32C48.8982 6.28 48.9249 6.24667 48.9516 6.22H48.9916C49.1249 6.06 49.2649 5.92667 49.4116 5.82H47.7716C47.8649 5.75333 47.9649 5.68667 48.0716 5.62C48.1649 5.54 48.2649 5.47333 48.3716 5.42H49.4716L49.6516 5.32H50.2116C50.2382 5.29333 50.2716 5.27333 50.3116 5.26C50.3516 5.24667 50.3849 5.23333 50.4116 5.22H50.6516C50.8916 5.1 51.1516 5 51.4316 4.92H52.6516C52.8382 4.85333 53.0249 4.8 53.2116 4.76C53.4116 4.70667 53.6182 4.66 53.8316 4.62H53.3316L53.6516 4.56L55.7716 4.22V4.12H56.7916V4.02H54.8716V3.92H56.0116C56.0116 3.85333 56.0116 3.8 56.0116 3.76C56.0116 3.70667 56.0049 3.66 55.9916 3.62C55.9782 3.5 55.9316 3.4 55.8516 3.32H55.5116C55.4982 3.30667 55.4649 3.28667 55.4116 3.26L55.2716 3.32H54.9316C54.8782 3.36 54.8249 3.40667 54.7716 3.46C54.7182 3.5 54.6582 3.55333 54.5916 3.62H54.6116C54.4649 3.76667 54.2782 3.84 54.0516 3.84H50.6516C50.4516 3.84 50.3182 3.76667 50.2516 3.62H50.2316C50.1916 3.55333 50.1782 3.48 50.1916 3.4V3.32H50.5116C50.5249 3.29333 50.5316 3.26 50.5316 3.22H49.2516C49.2516 3.16667 49.2649 3.1 49.2916 3.02H52.1716C52.1716 3.00667 52.1849 2.97333 52.2116 2.92H50.4316C50.4716 2.78667 50.5316 2.65333 50.6116 2.52H50.9516C50.9916 2.45333 51.0382 2.38667 51.0916 2.32C51.1449 2.25333 51.1982 2.18667 51.2516 2.12H49.7516L49.9316 1.92H52.8316C52.8849 1.86667 52.9382 1.82 52.9916 1.78C53.0582 1.72667 53.1182 1.67333 53.1716 1.62H51.3316L51.4516 1.52H50.8916C50.9582 1.46667 51.0316 1.42 51.1116 1.38C51.1916 1.32667 51.2716 1.27333 51.3516 1.22H52.2916C52.5716 1.06 52.8649 0.926666 53.1716 0.82H53.3116C53.6716 0.686666 54.0716 0.586666 54.5116 0.519999C54.9649 0.439999 55.4582 0.399999 55.9916 0.399999C57.0849 0.399999 58.0116 0.54 58.7716 0.82H58.6116C58.7582 0.873333 58.8982 0.933333 59.0316 1C59.1782 1.06667 59.3182 1.14 59.4516 1.22H58.5116L58.9316 1.52H59.4916L59.6116 1.62H61.4516L61.7516 1.92H58.8516C58.8782 1.94667 58.9049 1.98 58.9316 2.02C58.9582 2.06 58.9849 2.09333 59.0116 2.12H60.4916C60.5449 2.17333 60.5916 2.24 60.6316 2.32C60.6849 2.38667 60.7249 2.45333 60.7516 2.52H60.4316L60.6116 2.92H62.3916C62.4182 2.97333 62.4316 3.00667 62.4316 3.02H59.5516C59.5782 3.04667 59.5916 3.08 59.5916 3.12C59.6049 3.16 59.6182 3.19333 59.6316 3.22H60.2916C60.2916 3.23333 60.2916 3.24667 60.2916 3.26C60.3049 3.27333 60.3116 3.29333 60.3116 3.32H60.6516L60.7716 3.92H59.6116C59.6116 3.93333 59.6116 3.94667 59.6116 3.96C59.6249 3.97333 59.6316 3.99333 59.6316 4.02H61.5516V4.12H60.5516V4.22C60.5649 4.28667 60.5716 4.35333 60.5716 4.42C60.5716 4.48667 60.5716 4.55333 60.5716 4.62H61.0916V4.92H59.8516V5.22H59.6316V5.32H59.0916V5.42H57.9916V5.82H59.6316V6.22H59.5916V6.42H58.8716V6.52H59.3116V6.72H60.6316V7.02H60.3916V7.22H60.5516V7.62H60.4316V8.22H59.7716V8.62H60.5316V8.92H60.6316V9.32H60.8116V9.42H60.9716V9.72H60.3516V9.92H60.2316ZM54.4316 3.2C54.3382 3.2 54.2716 3.20667 54.2316 3.22H54.6516C54.6116 3.20667 54.5382 3.2 54.4316 3.2ZM54.5716 6.68L54.3916 6.72H54.5716V6.68ZM53.8916 7.22H54.4516C54.3049 7.32667 54.2316 7.46 54.2316 7.62H53.6316V7.68C53.6316 7.81333 53.6782 7.92667 53.7716 8.02C53.8382 8.11333 53.9716 8.18 54.1716 8.22H54.6516C54.8516 8.18 55.0249 8.11333 55.1716 8.02C55.2916 7.91333 55.4049 7.78 55.5116 7.62H55.6116C55.6382 7.55333 55.6649 7.49333 55.6916 7.44C55.7182 7.37333 55.7382 7.3 55.7516 7.22H55.5916C55.5916 7.19333 55.5916 7.17333 55.5916 7.16C55.6049 7.14667 55.6116 7.13333 55.6116 7.12H55.6316V7.02H55.8716C55.8849 6.96667 55.8916 6.92 55.8916 6.88C55.8916 6.82667 55.8916 6.77333 55.8916 6.72H55.5516L54.5716 6.94C54.5182 6.95333 54.4649 6.96667 54.4116 6.98C54.3716 6.99333 54.3316 7.00667 54.2916 7.02C54.2516 7.03333 54.2116 7.04667 54.1716 7.06C54.1316 7.07333 54.0982 7.09333 54.0716 7.12H54.0516C54.0249 7.13333 53.9982 7.14667 53.9716 7.16C53.9449 7.17333 53.9182 7.19333 53.8916 7.22ZM53.9916 8.22H53.4916C53.5449 8.23333 53.6249 8.24 53.7316 8.24C53.7716 8.24 53.8116 8.24 53.8516 8.24C53.9049 8.24 53.9516 8.23333 53.9916 8.22Z" fill="white"/>
</svg>
