<svg width="44" height="12" viewBox="0 0 44 12" fill="none" xmlns="http://www.w3.org/2000/svg">
<rect width="44" height="12" fill="#FBF9F9"/>
<mask id="path-1-outside-1_1669_162202" maskUnits="userSpaceOnUse" x="-1" y="0" width="45" height="12" fill="black">
<rect fill="white" x="-1" width="45" height="12"/>
<path d="M1.28906 10C1.09375 10 0.996094 9.89258 0.996094 9.67773V1.91992C0.996094 1.70508 1.09375 1.59766 1.28906 1.59766H6.41602C6.63086 1.59766 6.73828 1.68555 6.73828 1.86133V2.29492C6.73828 2.4707 6.63086 2.55859 6.41602 2.55859H2.12109V5.16016H6.06445C6.2793 5.16016 6.38672 5.24805 6.38672 5.42383V5.85742C6.38672 6.0332 6.2793 6.12109 6.06445 6.12109H2.12109V9.03906H6.5918C6.80664 9.03906 6.91406 9.12695 6.91406 9.30273V9.73633C6.91406 9.91211 6.80664 10 6.5918 10H1.28906ZM12.8105 10C12.6152 10 12.5175 9.89258 12.5175 9.67773V1.91992C12.5175 1.70508 12.6152 1.59766 12.8105 1.59766H17.9374C18.1523 1.59766 18.2597 1.68555 18.2597 1.86133V2.29492C18.2597 2.4707 18.1523 2.55859 17.9374 2.55859H13.6425V5.16016H17.5859C17.8007 5.16016 17.9081 5.24805 17.9081 5.42383V5.85742C17.9081 6.0332 17.8007 6.12109 17.5859 6.12109H13.6425V9.03906H18.1132C18.328 9.03906 18.4355 9.12695 18.4355 9.30273V9.73633C18.4355 9.91211 18.328 10 18.1132 10H12.8105ZM24.0155 9.36719C23.8084 9.17969 23.7537 9.01562 23.8514 8.875L24.1561 8.43555C24.2616 8.2832 24.4315 8.29492 24.6659 8.4707C24.9745 8.70117 25.2948 8.89062 25.6268 9.03906C25.9627 9.1875 26.369 9.26172 26.8455 9.26172C27.1971 9.26172 27.494 9.20898 27.7362 9.10352C27.9784 8.99805 28.1717 8.84766 28.3162 8.65234C28.4647 8.45312 28.5389 8.21289 28.5389 7.93164C28.5389 7.72852 28.5077 7.54102 28.4452 7.36914C28.3866 7.19336 28.2909 7.04688 28.158 6.92969C28.0252 6.8125 27.8866 6.7207 27.742 6.6543C27.5037 6.54492 27.1463 6.41797 26.6698 6.27344C26.1971 6.12891 25.783 5.97266 25.4276 5.80469C25.076 5.63672 24.7948 5.43359 24.5838 5.19531C24.3768 4.95703 24.2381 4.71289 24.1678 4.46289C24.1014 4.20898 24.0682 3.91992 24.0682 3.5957C24.0682 3.09961 24.2127 2.67188 24.5018 2.3125C24.7909 1.95313 25.1444 1.71484 25.5623 1.59766C25.9842 1.48047 26.412 1.42188 26.8455 1.42188C27.3416 1.42188 27.7733 1.48633 28.1405 1.61523C28.5077 1.74414 28.8358 1.91211 29.1248 2.11914C29.328 2.26367 29.3748 2.41602 29.2655 2.57617L28.9666 3.00391C28.8768 3.13281 28.701 3.10547 28.4393 2.92188C28.2401 2.78125 27.9959 2.65039 27.7069 2.5293C27.4217 2.4043 27.1385 2.3418 26.8573 2.3418C26.4979 2.3418 26.1991 2.38477 25.9608 2.4707C25.7225 2.55273 25.535 2.69336 25.3983 2.89258C25.2616 3.0918 25.1932 3.32227 25.1932 3.58398C25.1932 3.74805 25.2088 3.90039 25.2401 4.04102C25.2713 4.17773 25.3514 4.31836 25.4803 4.46289C25.6092 4.60742 25.7655 4.71875 25.9491 4.79688C26.1952 4.90234 26.576 5.02734 27.0916 5.17188C27.6112 5.3125 28.0643 5.48633 28.451 5.69336C28.8104 5.88477 29.0682 6.08594 29.2245 6.29688C29.3846 6.50391 29.5077 6.73047 29.5936 6.97656C29.6834 7.21875 29.7284 7.49219 29.7284 7.79688C29.7284 8.35156 29.5858 8.81445 29.3006 9.18555C29.0155 9.55664 28.6776 9.81445 28.287 9.95898C27.8963 10.1035 27.4061 10.1758 26.8162 10.1758C26.1092 10.1758 25.5233 10.0938 25.0584 9.92969C24.5936 9.76562 24.2459 9.57812 24.0155 9.36719ZM34.8689 10C34.6658 10 34.613 9.87109 34.7107 9.61328L37.6287 1.95508C37.7185 1.7168 37.8474 1.59766 38.0154 1.59766H38.8357C39.0037 1.59766 39.1326 1.7168 39.2224 1.95508L42.1404 9.61328C42.238 9.87109 42.1853 10 41.9822 10H41.3845C41.1775 10 41.0369 9.9043 40.9627 9.71289L40.2302 7.77344H36.6209L35.8884 9.71289C35.8142 9.9043 35.6736 10 35.4666 10H34.8689ZM36.99 6.8125H39.8611L38.9646 4.46875C38.8826 4.25 38.8005 4.00781 38.7185 3.74219C38.6404 3.47656 38.5466 3.09961 38.4373 2.61133H38.4138C38.3045 3.09961 38.2087 3.47656 38.1267 3.74219C38.0486 4.00781 37.9685 4.25 37.8865 4.46875L36.99 6.8125Z"/>
</mask>
<path d="M1.28906 10C1.09375 10 0.996094 9.89258 0.996094 9.67773V1.91992C0.996094 1.70508 1.09375 1.59766 1.28906 1.59766H6.41602C6.63086 1.59766 6.73828 1.68555 6.73828 1.86133V2.29492C6.73828 2.4707 6.63086 2.55859 6.41602 2.55859H2.12109V5.16016H6.06445C6.2793 5.16016 6.38672 5.24805 6.38672 5.42383V5.85742C6.38672 6.0332 6.2793 6.12109 6.06445 6.12109H2.12109V9.03906H6.5918C6.80664 9.03906 6.91406 9.12695 6.91406 9.30273V9.73633C6.91406 9.91211 6.80664 10 6.5918 10H1.28906ZM12.8105 10C12.6152 10 12.5175 9.89258 12.5175 9.67773V1.91992C12.5175 1.70508 12.6152 1.59766 12.8105 1.59766H17.9374C18.1523 1.59766 18.2597 1.68555 18.2597 1.86133V2.29492C18.2597 2.4707 18.1523 2.55859 17.9374 2.55859H13.6425V5.16016H17.5859C17.8007 5.16016 17.9081 5.24805 17.9081 5.42383V5.85742C17.9081 6.0332 17.8007 6.12109 17.5859 6.12109H13.6425V9.03906H18.1132C18.328 9.03906 18.4355 9.12695 18.4355 9.30273V9.73633C18.4355 9.91211 18.328 10 18.1132 10H12.8105ZM24.0155 9.36719C23.8084 9.17969 23.7537 9.01562 23.8514 8.875L24.1561 8.43555C24.2616 8.2832 24.4315 8.29492 24.6659 8.4707C24.9745 8.70117 25.2948 8.89062 25.6268 9.03906C25.9627 9.1875 26.369 9.26172 26.8455 9.26172C27.1971 9.26172 27.494 9.20898 27.7362 9.10352C27.9784 8.99805 28.1717 8.84766 28.3162 8.65234C28.4647 8.45312 28.5389 8.21289 28.5389 7.93164C28.5389 7.72852 28.5077 7.54102 28.4452 7.36914C28.3866 7.19336 28.2909 7.04688 28.158 6.92969C28.0252 6.8125 27.8866 6.7207 27.742 6.6543C27.5037 6.54492 27.1463 6.41797 26.6698 6.27344C26.1971 6.12891 25.783 5.97266 25.4276 5.80469C25.076 5.63672 24.7948 5.43359 24.5838 5.19531C24.3768 4.95703 24.2381 4.71289 24.1678 4.46289C24.1014 4.20898 24.0682 3.91992 24.0682 3.5957C24.0682 3.09961 24.2127 2.67188 24.5018 2.3125C24.7909 1.95313 25.1444 1.71484 25.5623 1.59766C25.9842 1.48047 26.412 1.42188 26.8455 1.42188C27.3416 1.42188 27.7733 1.48633 28.1405 1.61523C28.5077 1.74414 28.8358 1.91211 29.1248 2.11914C29.328 2.26367 29.3748 2.41602 29.2655 2.57617L28.9666 3.00391C28.8768 3.13281 28.701 3.10547 28.4393 2.92188C28.2401 2.78125 27.9959 2.65039 27.7069 2.5293C27.4217 2.4043 27.1385 2.3418 26.8573 2.3418C26.4979 2.3418 26.1991 2.38477 25.9608 2.4707C25.7225 2.55273 25.535 2.69336 25.3983 2.89258C25.2616 3.0918 25.1932 3.32227 25.1932 3.58398C25.1932 3.74805 25.2088 3.90039 25.2401 4.04102C25.2713 4.17773 25.3514 4.31836 25.4803 4.46289C25.6092 4.60742 25.7655 4.71875 25.9491 4.79688C26.1952 4.90234 26.576 5.02734 27.0916 5.17188C27.6112 5.3125 28.0643 5.48633 28.451 5.69336C28.8104 5.88477 29.0682 6.08594 29.2245 6.29688C29.3846 6.50391 29.5077 6.73047 29.5936 6.97656C29.6834 7.21875 29.7284 7.49219 29.7284 7.79688C29.7284 8.35156 29.5858 8.81445 29.3006 9.18555C29.0155 9.55664 28.6776 9.81445 28.287 9.95898C27.8963 10.1035 27.4061 10.1758 26.8162 10.1758C26.1092 10.1758 25.5233 10.0938 25.0584 9.92969C24.5936 9.76562 24.2459 9.57812 24.0155 9.36719ZM34.8689 10C34.6658 10 34.613 9.87109 34.7107 9.61328L37.6287 1.95508C37.7185 1.7168 37.8474 1.59766 38.0154 1.59766H38.8357C39.0037 1.59766 39.1326 1.7168 39.2224 1.95508L42.1404 9.61328C42.238 9.87109 42.1853 10 41.9822 10H41.3845C41.1775 10 41.0369 9.9043 40.9627 9.71289L40.2302 7.77344H36.6209L35.8884 9.71289C35.8142 9.9043 35.6736 10 35.4666 10H34.8689ZM36.99 6.8125H39.8611L38.9646 4.46875C38.8826 4.25 38.8005 4.00781 38.7185 3.74219C38.6404 3.47656 38.5466 3.09961 38.4373 2.61133H38.4138C38.3045 3.09961 38.2087 3.47656 38.1267 3.74219C38.0486 4.00781 37.9685 4.25 37.8865 4.46875L36.99 6.8125Z" fill="#FBF9F9"/>
<path d="M2.12109 2.55859V1.55859H1.12109V2.55859H2.12109ZM2.12109 5.16016H1.12109V6.16016H2.12109V5.16016ZM2.12109 6.12109V5.12109H1.12109V6.12109H2.12109ZM2.12109 9.03906H1.12109V10.0391H2.12109V9.03906ZM1.28906 9C1.37141 9 1.60952 9.02703 1.80928 9.24676C1.99259 9.44841 1.99609 9.65334 1.99609 9.67773H-0.00390625C-0.00390625 9.91697 0.0484228 10.283 0.329396 10.5921C0.626806 10.9193 1.0114 11 1.28906 11V9ZM1.99609 9.67773V1.91992H-0.00390625V9.67773H1.99609ZM1.99609 1.91992C1.99609 1.94432 1.99259 2.14925 1.80928 2.3509C1.60952 2.57062 1.37141 2.59766 1.28906 2.59766V0.597656C1.0114 0.597656 0.626806 0.678399 0.329396 1.00555C0.0484228 1.31462 -0.00390625 1.68068 -0.00390625 1.91992H1.99609ZM1.28906 2.59766H6.41602V0.597656H1.28906V2.59766ZM6.41602 2.59766C6.41259 2.59766 6.22429 2.60101 6.02448 2.43753C5.78626 2.24263 5.73828 1.98647 5.73828 1.86133H7.73828C7.73828 1.5604 7.63659 1.17241 7.29095 0.889617C6.98372 0.638244 6.63429 0.597656 6.41602 0.597656V2.59766ZM5.73828 1.86133V2.29492H7.73828V1.86133H5.73828ZM5.73828 2.29492C5.73828 2.16978 5.78626 1.91362 6.02448 1.71872C6.22429 1.55524 6.41259 1.55859 6.41602 1.55859V3.55859C6.63429 3.55859 6.98372 3.51801 7.29095 3.26663C7.63659 2.98384 7.73828 2.59585 7.73828 2.29492H5.73828ZM6.41602 1.55859H2.12109V3.55859H6.41602V1.55859ZM1.12109 2.55859V5.16016H3.12109V2.55859H1.12109ZM2.12109 6.16016H6.06445V4.16016H2.12109V6.16016ZM6.06445 6.16016C6.06102 6.16016 5.87273 6.16351 5.67291 6.00003C5.4347 5.80513 5.38672 5.54897 5.38672 5.42383H7.38672C7.38672 5.1229 7.28503 4.73491 6.93939 4.45212C6.63216 4.20074 6.28273 4.16016 6.06445 4.16016V6.16016ZM5.38672 5.42383V5.85742H7.38672V5.42383H5.38672ZM5.38672 5.85742C5.38672 5.73228 5.4347 5.47612 5.67291 5.28122C5.87273 5.11774 6.06102 5.12109 6.06445 5.12109V7.12109C6.28273 7.12109 6.63216 7.08051 6.93939 6.82913C7.28503 6.54634 7.38672 6.15835 7.38672 5.85742H5.38672ZM6.06445 5.12109H2.12109V7.12109H6.06445V5.12109ZM1.12109 6.12109V9.03906H3.12109V6.12109H1.12109ZM2.12109 10.0391H6.5918V8.03906H2.12109V10.0391ZM6.5918 10.0391C6.58837 10.0391 6.40007 10.0424 6.20026 9.87894C5.96204 9.68403 5.91406 9.42788 5.91406 9.30273H7.91406C7.91406 9.00181 7.81237 8.61382 7.46673 8.33102C7.1595 8.07965 6.81007 8.03906 6.5918 8.03906V10.0391ZM5.91406 9.30273V9.73633H7.91406V9.30273H5.91406ZM5.91406 9.73633C5.91406 9.61119 5.96204 9.35503 6.20026 9.16012C6.40007 8.99664 6.58837 9 6.5918 9V11C6.81007 11 7.1595 10.9594 7.46673 10.708C7.81237 10.4252 7.91406 10.0373 7.91406 9.73633H5.91406ZM6.5918 9H1.28906V11H6.5918V9ZM13.6425 2.55859V1.55859H12.6425V2.55859H13.6425ZM13.6425 5.16016H12.6425V6.16016H13.6425V5.16016ZM13.6425 6.12109V5.12109H12.6425V6.12109H13.6425ZM13.6425 9.03906H12.6425V10.0391H13.6425V9.03906ZM12.8105 9C12.8928 9 13.1309 9.02703 13.3307 9.24676C13.514 9.44841 13.5175 9.65334 13.5175 9.67773H11.5175C11.5175 9.91697 11.5698 10.283 11.8508 10.5921C12.1482 10.9193 12.5328 11 12.8105 11V9ZM13.5175 9.67773V1.91992H11.5175V9.67773H13.5175ZM13.5175 1.91992C13.5175 1.94432 13.514 2.14925 13.3307 2.3509C13.1309 2.57062 12.8928 2.59766 12.8105 2.59766V0.597656C12.5328 0.597656 12.1482 0.678399 11.8508 1.00555C11.5698 1.31462 11.5175 1.68068 11.5175 1.91992H13.5175ZM12.8105 2.59766H17.9374V0.597656H12.8105V2.59766ZM17.9374 2.59766C17.934 2.59766 17.7457 2.60101 17.5459 2.43753C17.3077 2.24263 17.2597 1.98647 17.2597 1.86133H19.2597C19.2597 1.5604 19.158 1.17241 18.8124 0.889617C18.5051 0.638244 18.1557 0.597656 17.9374 0.597656V2.59766ZM17.2597 1.86133V2.29492H19.2597V1.86133H17.2597ZM17.2597 2.29492C17.2597 2.16978 17.3077 1.91362 17.5459 1.71872C17.7457 1.55524 17.934 1.55859 17.9374 1.55859V3.55859C18.1557 3.55859 18.5051 3.51801 18.8124 3.26663C19.158 2.98384 19.2597 2.59585 19.2597 2.29492H17.2597ZM17.9374 1.55859H13.6425V3.55859H17.9374V1.55859ZM12.6425 2.55859V5.16016H14.6425V2.55859H12.6425ZM13.6425 6.16016H17.5859V4.16016H13.6425V6.16016ZM17.5859 6.16016C17.5824 6.16016 17.3941 6.16351 17.1943 6.00003C16.9561 5.80513 16.9081 5.54897 16.9081 5.42383H18.9081C18.9081 5.1229 18.8064 4.73491 18.4608 4.45212C18.1536 4.20074 17.8041 4.16016 17.5859 4.16016V6.16016ZM16.9081 5.42383V5.85742H18.9081V5.42383H16.9081ZM16.9081 5.85742C16.9081 5.73228 16.9561 5.47612 17.1943 5.28122C17.3941 5.11774 17.5824 5.12109 17.5859 5.12109V7.12109C17.8041 7.12109 18.1536 7.08051 18.4608 6.82913C18.8064 6.54634 18.9081 6.15835 18.9081 5.85742H16.9081ZM17.5859 5.12109H13.6425V7.12109H17.5859V5.12109ZM12.6425 6.12109V9.03906H14.6425V6.12109H12.6425ZM13.6425 10.0391H18.1132V8.03906H13.6425V10.0391ZM18.1132 10.0391C18.1098 10.0391 17.9215 10.0424 17.7217 9.87894C17.4834 9.68403 17.4355 9.42788 17.4355 9.30273H19.4355C19.4355 9.00181 19.3338 8.61382 18.9881 8.33102C18.6809 8.07965 18.3315 8.03906 18.1132 8.03906V10.0391ZM17.4355 9.30273V9.73633H19.4355V9.30273H17.4355ZM17.4355 9.73633C17.4355 9.61119 17.4834 9.35503 17.7217 9.16012C17.9215 8.99664 18.1098 9 18.1132 9V11C18.3315 11 18.6809 10.9594 18.9881 10.708C19.3338 10.4252 19.4355 10.0373 19.4355 9.73633H17.4355ZM18.1132 9H12.8105V11H18.1132V9ZM24.0155 9.36719L24.6906 8.6295L24.6867 8.62598L24.0155 9.36719ZM23.8514 8.875L24.6728 9.4454L24.6732 9.44478L23.8514 8.875ZM24.1561 8.43555L24.9779 9.00533L24.9783 9.00476L24.1561 8.43555ZM24.6659 8.4707L24.0659 9.2707L24.0675 9.27192L24.6659 8.4707ZM25.6268 9.03906L25.2187 9.95199L25.2226 9.95375L25.6268 9.03906ZM28.3162 8.65234L27.5144 8.05486L27.5124 8.0575L28.3162 8.65234ZM28.4452 7.36914L27.4965 7.68537L27.5007 7.69819L27.5054 7.71088L28.4452 7.36914ZM27.742 6.6543L28.1595 5.74562L28.1592 5.74547L27.742 6.6543ZM26.6698 6.27344L26.3773 7.22973L26.3795 7.2304L26.6698 6.27344ZM25.4276 5.80469L24.9965 6.707L25.0003 6.70883L25.4276 5.80469ZM24.5838 5.19531L23.8289 5.85121L23.8351 5.85815L24.5838 5.19531ZM24.1678 4.46289L23.2004 4.71592L23.2027 4.7248L23.2052 4.73364L24.1678 4.46289ZM25.5623 1.59766L25.2947 0.634136L25.2924 0.634786L25.5623 1.59766ZM29.1248 2.11914L28.5426 2.93214L28.5451 2.93393L29.1248 2.11914ZM29.2655 2.57617L30.0853 3.14891L30.0913 3.14013L29.2655 2.57617ZM28.9666 3.00391L28.1469 2.4312L28.1462 2.43211L28.9666 3.00391ZM28.4393 2.92188L27.8626 3.73885L27.865 3.74053L28.4393 2.92188ZM27.7069 2.5293L27.3054 3.44517L27.3129 3.44846L27.3205 3.45163L27.7069 2.5293ZM25.9608 2.4707L26.2863 3.41624L26.2932 3.41387L26.3 3.41139L25.9608 2.4707ZM25.2401 4.04102L24.2639 4.25795L24.2652 4.26384L25.2401 4.04102ZM25.9491 4.79688L26.343 3.87773L26.3406 3.87672L25.9491 4.79688ZM27.0916 5.17188L26.8217 6.1348L26.8304 6.13714L27.0916 5.17188ZM28.451 5.69336L27.979 6.57497L27.9809 6.57598L28.451 5.69336ZM29.2245 6.29688L28.4209 6.8921L28.4271 6.90049L28.4335 6.90875L29.2245 6.29688ZM29.5936 6.97656L28.6495 7.30625L28.6527 7.31534L28.656 7.32437L29.5936 6.97656ZM24.6867 8.62598C24.6404 8.58399 24.7171 8.63508 24.7679 8.78729C24.797 8.87461 24.8157 8.99139 24.7969 9.12451C24.7781 9.258 24.7273 9.36681 24.6728 9.4454L23.03 8.3046C22.7992 8.63694 22.7446 9.04219 22.8705 9.41974C22.9759 9.73601 23.1835 9.96288 23.3442 10.1084L24.6867 8.62598ZM24.6732 9.44478L24.9779 9.00533L23.3343 7.86577L23.0296 8.30522L24.6732 9.44478ZM24.9783 9.00476C24.9292 9.07567 24.8413 9.17154 24.7021 9.24266C24.5588 9.31582 24.4134 9.33595 24.2938 9.32771C24.0925 9.31382 24.0048 9.22489 24.0659 9.2707L25.2659 7.6707C25.0926 7.54074 24.8027 7.35805 24.4314 7.33245C23.9589 7.29986 23.566 7.53107 23.3339 7.86634L24.9783 9.00476ZM24.0675 9.27192C24.4317 9.54394 24.8155 9.77173 25.2187 9.95199L26.0349 8.12614C25.7741 8.00952 25.5172 7.85841 25.2642 7.66949L24.0675 9.27192ZM25.2226 9.95375C25.7177 10.1725 26.2694 10.2617 26.8455 10.2617V8.26172C26.4685 8.26172 26.2077 8.20248 26.031 8.12438L25.2226 9.95375ZM26.8455 10.2617C27.2914 10.2617 27.733 10.1956 28.1354 10.0204L27.3369 8.18668C27.255 8.22236 27.1028 8.26172 26.8455 8.26172V10.2617ZM28.1354 10.0204C28.5239 9.85116 28.8623 9.59559 29.1201 9.24719L27.5124 8.0575C27.4812 8.09973 27.4328 8.14493 27.3369 8.18668L28.1354 10.0204ZM29.1181 9.24983C29.4119 8.85555 29.5389 8.39844 29.5389 7.93164H27.5389C27.5389 8.02734 27.5175 8.0507 27.5144 8.05486L29.1181 9.24983ZM29.5389 7.93164C29.5389 7.6248 29.4914 7.32025 29.3849 7.0274L27.5054 7.71088C27.5239 7.76178 27.5389 7.83224 27.5389 7.93164H29.5389ZM29.3938 7.05291C29.2822 6.71785 29.0909 6.41921 28.8197 6.17985L27.4964 7.67953C27.4967 7.67977 27.4961 7.67925 27.495 7.678C27.4939 7.67675 27.493 7.67545 27.4923 7.67439C27.4916 7.67335 27.4917 7.67328 27.4923 7.67464C27.493 7.67603 27.4945 7.67944 27.4965 7.68537L29.3938 7.05291ZM28.8197 6.17985C28.6219 6.00533 28.4022 5.85711 28.1595 5.74562L27.3245 7.56297C27.3709 7.5843 27.4286 7.61967 27.4964 7.67953L28.8197 6.17985ZM28.1592 5.74547C27.8581 5.60725 27.4487 5.46471 26.96 5.31648L26.3795 7.2304C26.8439 7.37123 27.1494 7.48259 27.3249 7.56313L28.1592 5.74547ZM26.9622 5.31715C26.5245 5.18331 26.1572 5.04346 25.8548 4.90055L25.0003 6.70883C25.4088 6.90186 25.8697 7.0745 26.3773 7.22973L26.9622 5.31715ZM25.8587 4.90238C25.6016 4.77955 25.4372 4.65067 25.3326 4.53247L23.8351 5.85815C24.1523 6.21652 24.5504 6.49389 24.9965 6.70699L25.8587 4.90238ZM25.3387 4.53944C25.208 4.38904 25.1531 4.27272 25.1305 4.19215L23.2052 4.73364C23.3231 5.15306 23.5456 5.52503 23.829 5.85118L25.3387 4.53944ZM25.1353 4.20986C25.0948 4.05525 25.0682 3.8537 25.0682 3.5957H23.0682C23.0682 3.98615 23.108 4.36272 23.2004 4.71592L25.1353 4.20986ZM25.0682 3.5957C25.0682 3.30911 25.146 3.10711 25.281 2.93926L23.7226 1.68574C23.2795 2.23664 23.0682 2.89011 23.0682 3.5957H25.0682ZM25.281 2.93926C25.4481 2.73149 25.6278 2.61785 25.8323 2.56053L25.2924 0.634786C24.6609 0.811834 24.1336 1.17476 23.7226 1.68574L25.281 2.93926ZM25.83 2.56117C26.1656 2.46796 26.5033 2.42188 26.8455 2.42188V0.421875C26.3206 0.421875 25.8029 0.492982 25.2947 0.634138L25.83 2.56117ZM26.8455 2.42188C27.2584 2.42188 27.5732 2.47591 27.8092 2.55878L28.4717 0.671689C27.9734 0.496751 27.4249 0.421875 26.8455 0.421875V2.42188ZM27.8092 2.55878C28.0953 2.65923 28.3375 2.78524 28.5426 2.93213L29.7071 1.30615C29.3341 1.03898 28.92 0.829054 28.4717 0.671689L27.8092 2.55878ZM28.5451 2.93393C28.5444 2.93341 28.538 2.92883 28.5277 2.91964C28.5174 2.91049 28.5016 2.89522 28.483 2.87314C28.4461 2.82934 28.3919 2.75078 28.3566 2.63588C28.3194 2.51522 28.3128 2.38532 28.3376 2.2614C28.3612 2.1434 28.4073 2.05964 28.4397 2.01221L30.0913 3.14013C30.2764 2.86902 30.4005 2.47806 30.2681 2.04771C30.1526 1.67224 29.8906 1.43672 29.7046 1.30435L28.5451 2.93393ZM28.4457 2.00346L28.1469 2.4312L29.7864 3.57661L30.0852 3.14888L28.4457 2.00346ZM28.1462 2.43211C28.2259 2.31789 28.3525 2.20359 28.526 2.13724C28.6915 2.07395 28.8356 2.07866 28.9211 2.09196C29.0613 2.11377 29.1038 2.16651 29.0136 2.10322L27.865 3.74053C28.0365 3.86083 28.2977 4.01904 28.6137 4.06819C28.7871 4.09516 29.0084 4.09402 29.2403 4.00534C29.4802 3.9136 29.6625 3.75438 29.787 3.5757L28.1462 2.43211ZM29.016 2.10491C28.7433 1.91244 28.4315 1.74863 28.0933 1.60696L27.3205 3.45163C27.5604 3.55215 27.7368 3.65006 27.8626 3.73884L29.016 2.10491ZM28.1084 1.61343C27.7102 1.43891 27.2908 1.3418 26.8573 1.3418V3.3418C26.9862 3.3418 27.1332 3.36968 27.3054 3.44517L28.1084 1.61343ZM26.8573 1.3418C26.4267 1.3418 26.0038 1.39214 25.6215 1.53001L26.3 3.41139C26.3943 3.37739 26.5691 3.3418 26.8573 3.3418V1.3418ZM25.6353 1.52517C25.2036 1.67378 24.8373 1.94277 24.5738 2.32674L26.2228 3.45842C26.2327 3.44395 26.2414 3.43169 26.2863 3.41624L25.6353 1.52517ZM24.5738 2.32674C24.3132 2.70648 24.1932 3.13789 24.1932 3.58398H26.1932C26.1932 3.50664 26.21 3.47711 26.2228 3.45842L24.5738 2.32674ZM24.1932 3.58398C24.1932 3.81114 24.2148 4.03707 24.2639 4.25795L26.2163 3.82409C26.2028 3.76372 26.1932 3.68496 26.1932 3.58398H24.1932ZM24.2652 4.26384C24.3457 4.61586 24.5335 4.90366 24.734 5.12851L26.2266 3.79728C26.2137 3.78277 26.2049 3.77166 26.1994 3.7641C26.1938 3.75654 26.192 3.7532 26.1926 3.75418C26.1936 3.75609 26.2057 3.77784 26.2149 3.81819L24.2652 4.26384ZM24.734 5.12851C24.964 5.38635 25.2426 5.58302 25.5575 5.71703L26.3406 3.87672C26.2884 3.85448 26.2545 3.82849 26.2266 3.79728L24.734 5.12851ZM25.5551 5.71602C25.864 5.84841 26.2968 5.98763 26.8217 6.13476L27.3615 4.20899C26.8552 4.06706 26.5263 3.95628 26.343 3.87773L25.5551 5.71602ZM26.8304 6.13714C27.2926 6.26224 27.6722 6.41071 27.979 6.57497L28.923 4.81175C28.4564 4.56195 27.9298 4.36276 27.3529 4.20661L26.8304 6.13714ZM27.9809 6.57598C28.2743 6.73221 28.3884 6.84824 28.4209 6.8921L30.028 5.70165C29.748 5.32363 29.3465 5.03732 28.9211 4.81074L27.9809 6.57598ZM28.4335 6.90875C28.528 7.03094 28.5992 7.16228 28.6495 7.30625L30.5377 6.64688C30.4161 6.29866 30.2412 5.97688 30.0154 5.685L28.4335 6.90875ZM28.656 7.32437C28.6979 7.43724 28.7284 7.59006 28.7284 7.79688H30.7284C30.7284 7.39432 30.669 7.00026 30.5312 6.62876L28.656 7.32437ZM28.7284 7.79688C28.7284 8.17346 28.6349 8.41067 28.5077 8.57624L30.0936 9.79485C30.5366 9.21823 30.7284 8.52967 30.7284 7.79688H28.7284ZM28.5077 8.57624C28.3227 8.81701 28.1328 8.94978 27.9399 9.02112L28.634 10.8968C29.2224 10.6791 29.7083 10.2963 30.0936 9.79485L28.5077 8.57624ZM27.9399 9.02112C27.6962 9.11131 27.333 9.17578 26.8162 9.17578V11.1758C27.4792 11.1758 28.0965 11.0957 28.634 10.8968L27.9399 9.02112ZM26.8162 9.17578C26.1776 9.17578 25.7137 9.1005 25.3913 8.9867L24.7256 10.8727C25.3329 11.087 26.0409 11.1758 26.8162 11.1758V9.17578ZM25.3913 8.9867C24.9881 8.8444 24.7813 8.71249 24.6906 8.62951L23.3403 10.1049C23.7106 10.4438 24.1991 10.6868 24.7256 10.8727L25.3913 8.9867ZM34.7107 9.61328L33.7762 9.25723L33.7755 9.25905L34.7107 9.61328ZM37.6287 1.95508L38.5631 2.31114L38.5644 2.30788L37.6287 1.95508ZM39.2224 1.95508L38.2867 2.30788L38.288 2.31113L39.2224 1.95508ZM42.1404 9.61328L43.0755 9.25905L43.0749 9.25723L42.1404 9.61328ZM40.9627 9.71289L40.0271 10.0662L40.0303 10.0744L40.9627 9.71289ZM40.2302 7.77344L41.1657 7.42015L40.9215 6.77344H40.2302V7.77344ZM36.6209 7.77344V6.77344H35.9296L35.6853 7.42015L36.6209 7.77344ZM35.8884 9.71289L36.8208 10.0744L36.8239 10.0662L35.8884 9.71289ZM36.99 6.8125L36.056 6.45524L35.5368 7.8125H36.99V6.8125ZM39.8611 6.8125V7.8125H41.3142L40.7951 6.45524L39.8611 6.8125ZM38.9646 4.46875L38.0283 4.81988L38.0306 4.82601L38.9646 4.46875ZM38.7185 3.74219L37.7591 4.02438L37.763 4.03726L38.7185 3.74219ZM38.4373 2.61133L39.4131 2.39274L39.238 1.61133H38.4373V2.61133ZM38.4138 2.61133V1.61133H37.613L37.438 2.39274L38.4138 2.61133ZM38.1267 3.74219L37.1712 3.44709L37.1674 3.46002L38.1267 3.74219ZM37.8865 4.46875L38.8205 4.82601L38.8228 4.81987L37.8865 4.46875ZM34.8689 9C34.9133 9 35.0412 9.00544 35.1947 9.08277C35.3714 9.17178 35.5216 9.32682 35.6026 9.52469C35.6737 9.69863 35.6655 9.84162 35.659 9.89786C35.6521 9.95724 35.6396 9.98415 35.6459 9.96751L33.7755 9.25905C33.7129 9.42442 33.571 9.8408 33.7515 10.282C34.0001 10.8897 34.5793 11 34.8689 11V9ZM35.6452 9.96934L38.5631 2.31113L36.6942 1.59902L33.7762 9.25723L35.6452 9.96934ZM38.5644 2.30788C38.5774 2.27338 38.5608 2.33879 38.4715 2.42139C38.423 2.46622 38.3556 2.51335 38.2692 2.54805C38.182 2.58304 38.0945 2.59766 38.0154 2.59766V0.597656C37.2267 0.597656 36.8411 1.20939 36.693 1.60227L38.5644 2.30788ZM38.0154 2.59766H38.8357V0.597656H38.0154V2.59766ZM38.8357 2.59766C38.7566 2.59766 38.6691 2.58304 38.5819 2.54805C38.4955 2.51335 38.4281 2.46622 38.3796 2.42139C38.2902 2.33879 38.2737 2.27338 38.2867 2.30788L40.1581 1.60227C40.01 1.20939 39.6243 0.597656 38.8357 0.597656V2.59766ZM38.288 2.31113L41.2059 9.96934L43.0749 9.25723L40.1569 1.59902L38.288 2.31113ZM41.2052 9.96751C41.2115 9.98415 41.199 9.95724 41.1921 9.89786C41.1856 9.84162 41.1774 9.69863 41.2485 9.52469C41.3295 9.32682 41.4797 9.17178 41.6564 9.08277C41.8099 9.00544 41.9378 9 41.9822 9V11C42.2718 11 42.851 10.8897 43.0996 10.282C43.2801 9.8408 43.1382 9.42442 43.0755 9.25905L41.2052 9.96751ZM41.9822 9H41.3845V11H41.9822V9ZM41.3845 9C41.4376 9 41.5578 9.01395 41.6864 9.10151C41.8157 9.18951 41.8743 9.29786 41.895 9.35136L40.0303 10.0744C40.1253 10.3193 40.2912 10.5712 40.5612 10.7549C40.8304 10.9382 41.1245 11 41.3845 11V9ZM41.8982 9.3596L41.1657 7.42015L39.2947 8.12673L40.0271 10.0662L41.8982 9.3596ZM40.2302 6.77344H36.6209V8.77344H40.2302V6.77344ZM35.6853 7.42015L34.9529 9.3596L36.8239 10.0662L37.5564 8.12673L35.6853 7.42015ZM34.9561 9.35136C34.9768 9.29786 35.0354 9.18951 35.1647 9.10151C35.2933 9.01395 35.4135 9 35.4666 9V11C35.7266 11 36.0206 10.9382 36.2899 10.7549C36.5599 10.5712 36.7258 10.3193 36.8208 10.0744L34.9561 9.35136ZM35.4666 9H34.8689V11H35.4666V9ZM36.99 7.8125H39.8611V5.8125H36.99V7.8125ZM40.7951 6.45524L39.8986 4.11149L38.0306 4.82601L38.9271 7.16976L40.7951 6.45524ZM39.9009 4.11763C39.827 3.92044 39.7512 3.69729 39.674 3.44711L37.763 4.03726C37.8498 4.31834 37.9382 4.57956 38.0283 4.81987L39.9009 4.11763ZM39.6779 3.46002C39.609 3.22576 39.5208 2.87372 39.4131 2.39274L37.4614 2.82991C37.5725 3.32549 37.6718 3.72737 37.7591 4.02435L39.6779 3.46002ZM38.4373 1.61133H38.4138V3.61133H38.4373V1.61133ZM37.438 2.39274C37.3306 2.87211 37.2417 3.21907 37.1712 3.44711L39.0822 4.03726C39.1758 3.73405 39.2783 3.32711 39.3896 2.82991L37.438 2.39274ZM37.1674 3.46002C37.0949 3.7065 37.0223 3.92526 36.9502 4.11763L38.8228 4.81987C38.9147 4.57474 39.0023 4.30912 39.0861 4.02435L37.1674 3.46002ZM36.9525 4.11149L36.056 6.45524L37.924 7.16976L38.8205 4.82601L36.9525 4.11149Z" fill="black" mask="url(#path-1-outside-1_1669_162202)"/>
<path d="M2.12109 2.55859V1.55859H1.12109V2.55859H2.12109ZM2.12109 5.16016H1.12109V6.16016H2.12109V5.16016ZM2.12109 6.12109V5.12109H1.12109V6.12109H2.12109ZM2.12109 9.03906H1.12109V10.0391H2.12109V9.03906ZM1.28906 9C1.37141 9 1.60952 9.02703 1.80928 9.24676C1.99259 9.44841 1.99609 9.65334 1.99609 9.67773H-0.00390625C-0.00390625 9.91697 0.0484228 10.283 0.329396 10.5921C0.626806 10.9193 1.0114 11 1.28906 11V9ZM1.99609 9.67773V1.91992H-0.00390625V9.67773H1.99609ZM1.99609 1.91992C1.99609 1.94432 1.99259 2.14925 1.80928 2.3509C1.60952 2.57062 1.37141 2.59766 1.28906 2.59766V0.597656C1.0114 0.597656 0.626806 0.678399 0.329396 1.00555C0.0484228 1.31462 -0.00390625 1.68068 -0.00390625 1.91992H1.99609ZM1.28906 2.59766H6.41602V0.597656H1.28906V2.59766ZM6.41602 2.59766C6.41259 2.59766 6.22429 2.60101 6.02448 2.43753C5.78626 2.24263 5.73828 1.98647 5.73828 1.86133H7.73828C7.73828 1.5604 7.63659 1.17241 7.29095 0.889617C6.98372 0.638244 6.63429 0.597656 6.41602 0.597656V2.59766ZM5.73828 1.86133V2.29492H7.73828V1.86133H5.73828ZM5.73828 2.29492C5.73828 2.16978 5.78626 1.91362 6.02448 1.71872C6.22429 1.55524 6.41259 1.55859 6.41602 1.55859V3.55859C6.63429 3.55859 6.98372 3.51801 7.29095 3.26663C7.63659 2.98384 7.73828 2.59585 7.73828 2.29492H5.73828ZM6.41602 1.55859H2.12109V3.55859H6.41602V1.55859ZM1.12109 2.55859V5.16016H3.12109V2.55859H1.12109ZM2.12109 6.16016H6.06445V4.16016H2.12109V6.16016ZM6.06445 6.16016C6.06102 6.16016 5.87273 6.16351 5.67291 6.00003C5.4347 5.80513 5.38672 5.54897 5.38672 5.42383H7.38672C7.38672 5.1229 7.28503 4.73491 6.93939 4.45212C6.63216 4.20074 6.28273 4.16016 6.06445 4.16016V6.16016ZM5.38672 5.42383V5.85742H7.38672V5.42383H5.38672ZM5.38672 5.85742C5.38672 5.73228 5.4347 5.47612 5.67291 5.28122C5.87273 5.11774 6.06102 5.12109 6.06445 5.12109V7.12109C6.28273 7.12109 6.63216 7.08051 6.93939 6.82913C7.28503 6.54634 7.38672 6.15835 7.38672 5.85742H5.38672ZM6.06445 5.12109H2.12109V7.12109H6.06445V5.12109ZM1.12109 6.12109V9.03906H3.12109V6.12109H1.12109ZM2.12109 10.0391H6.5918V8.03906H2.12109V10.0391ZM6.5918 10.0391C6.58837 10.0391 6.40007 10.0424 6.20026 9.87894C5.96204 9.68403 5.91406 9.42788 5.91406 9.30273H7.91406C7.91406 9.00181 7.81237 8.61382 7.46673 8.33102C7.1595 8.07965 6.81007 8.03906 6.5918 8.03906V10.0391ZM5.91406 9.30273V9.73633H7.91406V9.30273H5.91406ZM5.91406 9.73633C5.91406 9.61119 5.96204 9.35503 6.20026 9.16012C6.40007 8.99664 6.58837 9 6.5918 9V11C6.81007 11 7.1595 10.9594 7.46673 10.708C7.81237 10.4252 7.91406 10.0373 7.91406 9.73633H5.91406ZM6.5918 9H1.28906V11H6.5918V9ZM13.6425 2.55859V1.55859H12.6425V2.55859H13.6425ZM13.6425 5.16016H12.6425V6.16016H13.6425V5.16016ZM13.6425 6.12109V5.12109H12.6425V6.12109H13.6425ZM13.6425 9.03906H12.6425V10.0391H13.6425V9.03906ZM12.8105 9C12.8928 9 13.1309 9.02703 13.3307 9.24676C13.514 9.44841 13.5175 9.65334 13.5175 9.67773H11.5175C11.5175 9.91697 11.5698 10.283 11.8508 10.5921C12.1482 10.9193 12.5328 11 12.8105 11V9ZM13.5175 9.67773V1.91992H11.5175V9.67773H13.5175ZM13.5175 1.91992C13.5175 1.94432 13.514 2.14925 13.3307 2.3509C13.1309 2.57062 12.8928 2.59766 12.8105 2.59766V0.597656C12.5328 0.597656 12.1482 0.678399 11.8508 1.00555C11.5698 1.31462 11.5175 1.68068 11.5175 1.91992H13.5175ZM12.8105 2.59766H17.9374V0.597656H12.8105V2.59766ZM17.9374 2.59766C17.934 2.59766 17.7457 2.60101 17.5459 2.43753C17.3077 2.24263 17.2597 1.98647 17.2597 1.86133H19.2597C19.2597 1.5604 19.158 1.17241 18.8124 0.889617C18.5051 0.638244 18.1557 0.597656 17.9374 0.597656V2.59766ZM17.2597 1.86133V2.29492H19.2597V1.86133H17.2597ZM17.2597 2.29492C17.2597 2.16978 17.3077 1.91362 17.5459 1.71872C17.7457 1.55524 17.934 1.55859 17.9374 1.55859V3.55859C18.1557 3.55859 18.5051 3.51801 18.8124 3.26663C19.158 2.98384 19.2597 2.59585 19.2597 2.29492H17.2597ZM17.9374 1.55859H13.6425V3.55859H17.9374V1.55859ZM12.6425 2.55859V5.16016H14.6425V2.55859H12.6425ZM13.6425 6.16016H17.5859V4.16016H13.6425V6.16016ZM17.5859 6.16016C17.5824 6.16016 17.3941 6.16351 17.1943 6.00003C16.9561 5.80513 16.9081 5.54897 16.9081 5.42383H18.9081C18.9081 5.1229 18.8064 4.73491 18.4608 4.45212C18.1536 4.20074 17.8041 4.16016 17.5859 4.16016V6.16016ZM16.9081 5.42383V5.85742H18.9081V5.42383H16.9081ZM16.9081 5.85742C16.9081 5.73228 16.9561 5.47612 17.1943 5.28122C17.3941 5.11774 17.5824 5.12109 17.5859 5.12109V7.12109C17.8041 7.12109 18.1536 7.08051 18.4608 6.82913C18.8064 6.54634 18.9081 6.15835 18.9081 5.85742H16.9081ZM17.5859 5.12109H13.6425V7.12109H17.5859V5.12109ZM12.6425 6.12109V9.03906H14.6425V6.12109H12.6425ZM13.6425 10.0391H18.1132V8.03906H13.6425V10.0391ZM18.1132 10.0391C18.1098 10.0391 17.9215 10.0424 17.7217 9.87894C17.4834 9.68403 17.4355 9.42788 17.4355 9.30273H19.4355C19.4355 9.00181 19.3338 8.61382 18.9881 8.33102C18.6809 8.07965 18.3315 8.03906 18.1132 8.03906V10.0391ZM17.4355 9.30273V9.73633H19.4355V9.30273H17.4355ZM17.4355 9.73633C17.4355 9.61119 17.4834 9.35503 17.7217 9.16012C17.9215 8.99664 18.1098 9 18.1132 9V11C18.3315 11 18.6809 10.9594 18.9881 10.708C19.3338 10.4252 19.4355 10.0373 19.4355 9.73633H17.4355ZM18.1132 9H12.8105V11H18.1132V9ZM24.0155 9.36719L24.6906 8.6295L24.6867 8.62598L24.0155 9.36719ZM23.8514 8.875L24.6728 9.4454L24.6732 9.44478L23.8514 8.875ZM24.1561 8.43555L24.9779 9.00533L24.9783 9.00476L24.1561 8.43555ZM24.6659 8.4707L24.0659 9.2707L24.0675 9.27192L24.6659 8.4707ZM25.6268 9.03906L25.2187 9.95199L25.2226 9.95375L25.6268 9.03906ZM28.3162 8.65234L27.5144 8.05486L27.5124 8.0575L28.3162 8.65234ZM28.4452 7.36914L27.4965 7.68537L27.5007 7.69819L27.5054 7.71088L28.4452 7.36914ZM27.742 6.6543L28.1595 5.74562L28.1592 5.74547L27.742 6.6543ZM26.6698 6.27344L26.3773 7.22973L26.3795 7.2304L26.6698 6.27344ZM25.4276 5.80469L24.9965 6.707L25.0003 6.70883L25.4276 5.80469ZM24.5838 5.19531L23.8289 5.85121L23.8351 5.85815L24.5838 5.19531ZM24.1678 4.46289L23.2004 4.71592L23.2027 4.7248L23.2052 4.73364L24.1678 4.46289ZM25.5623 1.59766L25.2947 0.634136L25.2924 0.634786L25.5623 1.59766ZM29.1248 2.11914L28.5426 2.93214L28.5451 2.93393L29.1248 2.11914ZM29.2655 2.57617L30.0853 3.14891L30.0913 3.14013L29.2655 2.57617ZM28.9666 3.00391L28.1469 2.4312L28.1462 2.43211L28.9666 3.00391ZM28.4393 2.92188L27.8626 3.73885L27.865 3.74053L28.4393 2.92188ZM27.7069 2.5293L27.3054 3.44517L27.3129 3.44846L27.3205 3.45163L27.7069 2.5293ZM25.9608 2.4707L26.2863 3.41624L26.2932 3.41387L26.3 3.41139L25.9608 2.4707ZM25.2401 4.04102L24.2639 4.25795L24.2652 4.26384L25.2401 4.04102ZM25.9491 4.79688L26.343 3.87773L26.3406 3.87672L25.9491 4.79688ZM27.0916 5.17188L26.8217 6.1348L26.8304 6.13714L27.0916 5.17188ZM28.451 5.69336L27.979 6.57497L27.9809 6.57598L28.451 5.69336ZM29.2245 6.29688L28.4209 6.8921L28.4271 6.90049L28.4335 6.90875L29.2245 6.29688ZM29.5936 6.97656L28.6495 7.30625L28.6527 7.31534L28.656 7.32437L29.5936 6.97656ZM24.6867 8.62598C24.6404 8.58399 24.7171 8.63508 24.7679 8.78729C24.797 8.87461 24.8157 8.99139 24.7969 9.12451C24.7781 9.258 24.7273 9.36681 24.6728 9.4454L23.03 8.3046C22.7992 8.63694 22.7446 9.04219 22.8705 9.41974C22.9759 9.73601 23.1835 9.96288 23.3442 10.1084L24.6867 8.62598ZM24.6732 9.44478L24.9779 9.00533L23.3343 7.86577L23.0296 8.30522L24.6732 9.44478ZM24.9783 9.00476C24.9292 9.07567 24.8413 9.17154 24.7021 9.24266C24.5588 9.31582 24.4134 9.33595 24.2938 9.32771C24.0925 9.31382 24.0048 9.22489 24.0659 9.2707L25.2659 7.6707C25.0926 7.54074 24.8027 7.35805 24.4314 7.33245C23.9589 7.29986 23.566 7.53107 23.3339 7.86634L24.9783 9.00476ZM24.0675 9.27192C24.4317 9.54394 24.8155 9.77173 25.2187 9.95199L26.0349 8.12614C25.7741 8.00952 25.5172 7.85841 25.2642 7.66949L24.0675 9.27192ZM25.2226 9.95375C25.7177 10.1725 26.2694 10.2617 26.8455 10.2617V8.26172C26.4685 8.26172 26.2077 8.20248 26.031 8.12438L25.2226 9.95375ZM26.8455 10.2617C27.2914 10.2617 27.733 10.1956 28.1354 10.0204L27.3369 8.18668C27.255 8.22236 27.1028 8.26172 26.8455 8.26172V10.2617ZM28.1354 10.0204C28.5239 9.85116 28.8623 9.59559 29.1201 9.24719L27.5124 8.0575C27.4812 8.09973 27.4328 8.14493 27.3369 8.18668L28.1354 10.0204ZM29.1181 9.24983C29.4119 8.85555 29.5389 8.39844 29.5389 7.93164H27.5389C27.5389 8.02734 27.5175 8.0507 27.5144 8.05486L29.1181 9.24983ZM29.5389 7.93164C29.5389 7.6248 29.4914 7.32025 29.3849 7.0274L27.5054 7.71088C27.5239 7.76178 27.5389 7.83224 27.5389 7.93164H29.5389ZM29.3938 7.05291C29.2822 6.71785 29.0909 6.41921 28.8197 6.17985L27.4964 7.67953C27.4967 7.67977 27.4961 7.67925 27.495 7.678C27.4939 7.67675 27.493 7.67545 27.4923 7.67439C27.4916 7.67335 27.4917 7.67328 27.4923 7.67464C27.493 7.67603 27.4945 7.67944 27.4965 7.68537L29.3938 7.05291ZM28.8197 6.17985C28.6219 6.00533 28.4022 5.85711 28.1595 5.74562L27.3245 7.56297C27.3709 7.5843 27.4286 7.61967 27.4964 7.67953L28.8197 6.17985ZM28.1592 5.74547C27.8581 5.60725 27.4487 5.46471 26.96 5.31648L26.3795 7.2304C26.8439 7.37123 27.1494 7.48259 27.3249 7.56313L28.1592 5.74547ZM26.9622 5.31715C26.5245 5.18331 26.1572 5.04346 25.8548 4.90055L25.0003 6.70883C25.4088 6.90186 25.8697 7.0745 26.3773 7.22973L26.9622 5.31715ZM25.8587 4.90238C25.6016 4.77955 25.4372 4.65067 25.3326 4.53247L23.8351 5.85815C24.1523 6.21652 24.5504 6.49389 24.9965 6.70699L25.8587 4.90238ZM25.3387 4.53944C25.208 4.38904 25.1531 4.27272 25.1305 4.19215L23.2052 4.73364C23.3231 5.15306 23.5456 5.52503 23.829 5.85118L25.3387 4.53944ZM25.1353 4.20986C25.0948 4.05525 25.0682 3.8537 25.0682 3.5957H23.0682C23.0682 3.98615 23.108 4.36272 23.2004 4.71592L25.1353 4.20986ZM25.0682 3.5957C25.0682 3.30911 25.146 3.10711 25.281 2.93926L23.7226 1.68574C23.2795 2.23664 23.0682 2.89011 23.0682 3.5957H25.0682ZM25.281 2.93926C25.4481 2.73149 25.6278 2.61785 25.8323 2.56053L25.2924 0.634786C24.6609 0.811834 24.1336 1.17476 23.7226 1.68574L25.281 2.93926ZM25.83 2.56117C26.1656 2.46796 26.5033 2.42188 26.8455 2.42188V0.421875C26.3206 0.421875 25.8029 0.492982 25.2947 0.634138L25.83 2.56117ZM26.8455 2.42188C27.2584 2.42188 27.5732 2.47591 27.8092 2.55878L28.4717 0.671689C27.9734 0.496751 27.4249 0.421875 26.8455 0.421875V2.42188ZM27.8092 2.55878C28.0953 2.65923 28.3375 2.78524 28.5426 2.93213L29.7071 1.30615C29.3341 1.03898 28.92 0.829054 28.4717 0.671689L27.8092 2.55878ZM28.5451 2.93393C28.5444 2.93341 28.538 2.92883 28.5277 2.91964C28.5174 2.91049 28.5016 2.89522 28.483 2.87314C28.4461 2.82934 28.3919 2.75078 28.3566 2.63588C28.3194 2.51522 28.3128 2.38532 28.3376 2.2614C28.3612 2.1434 28.4073 2.05964 28.4397 2.01221L30.0913 3.14013C30.2764 2.86902 30.4005 2.47806 30.2681 2.04771C30.1526 1.67224 29.8906 1.43672 29.7046 1.30435L28.5451 2.93393ZM28.4457 2.00346L28.1469 2.4312L29.7864 3.57661L30.0852 3.14888L28.4457 2.00346ZM28.1462 2.43211C28.2259 2.31789 28.3525 2.20359 28.526 2.13724C28.6915 2.07395 28.8356 2.07866 28.9211 2.09196C29.0613 2.11377 29.1038 2.16651 29.0136 2.10322L27.865 3.74053C28.0365 3.86083 28.2977 4.01904 28.6137 4.06819C28.7871 4.09516 29.0084 4.09402 29.2403 4.00534C29.4802 3.9136 29.6625 3.75438 29.787 3.5757L28.1462 2.43211ZM29.016 2.10491C28.7433 1.91244 28.4315 1.74863 28.0933 1.60696L27.3205 3.45163C27.5604 3.55215 27.7368 3.65006 27.8626 3.73884L29.016 2.10491ZM28.1084 1.61343C27.7102 1.43891 27.2908 1.3418 26.8573 1.3418V3.3418C26.9862 3.3418 27.1332 3.36968 27.3054 3.44517L28.1084 1.61343ZM26.8573 1.3418C26.4267 1.3418 26.0038 1.39214 25.6215 1.53001L26.3 3.41139C26.3943 3.37739 26.5691 3.3418 26.8573 3.3418V1.3418ZM25.6353 1.52517C25.2036 1.67378 24.8373 1.94277 24.5738 2.32674L26.2228 3.45842C26.2327 3.44395 26.2414 3.43169 26.2863 3.41624L25.6353 1.52517ZM24.5738 2.32674C24.3132 2.70648 24.1932 3.13789 24.1932 3.58398H26.1932C26.1932 3.50664 26.21 3.47711 26.2228 3.45842L24.5738 2.32674ZM24.1932 3.58398C24.1932 3.81114 24.2148 4.03707 24.2639 4.25795L26.2163 3.82409C26.2028 3.76372 26.1932 3.68496 26.1932 3.58398H24.1932ZM24.2652 4.26384C24.3457 4.61586 24.5335 4.90366 24.734 5.12851L26.2266 3.79728C26.2137 3.78277 26.2049 3.77166 26.1994 3.7641C26.1938 3.75654 26.192 3.7532 26.1926 3.75418C26.1936 3.75609 26.2057 3.77784 26.2149 3.81819L24.2652 4.26384ZM24.734 5.12851C24.964 5.38635 25.2426 5.58302 25.5575 5.71703L26.3406 3.87672C26.2884 3.85448 26.2545 3.82849 26.2266 3.79728L24.734 5.12851ZM25.5551 5.71602C25.864 5.84841 26.2968 5.98763 26.8217 6.13476L27.3615 4.20899C26.8552 4.06706 26.5263 3.95628 26.343 3.87773L25.5551 5.71602ZM26.8304 6.13714C27.2926 6.26224 27.6722 6.41071 27.979 6.57497L28.923 4.81175C28.4564 4.56195 27.9298 4.36276 27.3529 4.20661L26.8304 6.13714ZM27.9809 6.57598C28.2743 6.73221 28.3884 6.84824 28.4209 6.8921L30.028 5.70165C29.748 5.32363 29.3465 5.03732 28.9211 4.81074L27.9809 6.57598ZM28.4335 6.90875C28.528 7.03094 28.5992 7.16228 28.6495 7.30625L30.5377 6.64688C30.4161 6.29866 30.2412 5.97688 30.0154 5.685L28.4335 6.90875ZM28.656 7.32437C28.6979 7.43724 28.7284 7.59006 28.7284 7.79688H30.7284C30.7284 7.39432 30.669 7.00026 30.5312 6.62876L28.656 7.32437ZM28.7284 7.79688C28.7284 8.17346 28.6349 8.41067 28.5077 8.57624L30.0936 9.79485C30.5366 9.21823 30.7284 8.52967 30.7284 7.79688H28.7284ZM28.5077 8.57624C28.3227 8.81701 28.1328 8.94978 27.9399 9.02112L28.634 10.8968C29.2224 10.6791 29.7083 10.2963 30.0936 9.79485L28.5077 8.57624ZM27.9399 9.02112C27.6962 9.11131 27.333 9.17578 26.8162 9.17578V11.1758C27.4792 11.1758 28.0965 11.0957 28.634 10.8968L27.9399 9.02112ZM26.8162 9.17578C26.1776 9.17578 25.7137 9.1005 25.3913 8.9867L24.7256 10.8727C25.3329 11.087 26.0409 11.1758 26.8162 11.1758V9.17578ZM25.3913 8.9867C24.9881 8.8444 24.7813 8.71249 24.6906 8.62951L23.3403 10.1049C23.7106 10.4438 24.1991 10.6868 24.7256 10.8727L25.3913 8.9867ZM34.7107 9.61328L33.7762 9.25723L33.7755 9.25905L34.7107 9.61328ZM37.6287 1.95508L38.5631 2.31114L38.5644 2.30788L37.6287 1.95508ZM39.2224 1.95508L38.2867 2.30788L38.288 2.31113L39.2224 1.95508ZM42.1404 9.61328L43.0755 9.25905L43.0749 9.25723L42.1404 9.61328ZM40.9627 9.71289L40.0271 10.0662L40.0303 10.0744L40.9627 9.71289ZM40.2302 7.77344L41.1657 7.42015L40.9215 6.77344H40.2302V7.77344ZM36.6209 7.77344V6.77344H35.9296L35.6853 7.42015L36.6209 7.77344ZM35.8884 9.71289L36.8208 10.0744L36.8239 10.0662L35.8884 9.71289ZM36.99 6.8125L36.056 6.45524L35.5368 7.8125H36.99V6.8125ZM39.8611 6.8125V7.8125H41.3142L40.7951 6.45524L39.8611 6.8125ZM38.9646 4.46875L38.0283 4.81988L38.0306 4.82601L38.9646 4.46875ZM38.7185 3.74219L37.7591 4.02438L37.763 4.03726L38.7185 3.74219ZM38.4373 2.61133L39.4131 2.39274L39.238 1.61133H38.4373V2.61133ZM38.4138 2.61133V1.61133H37.613L37.438 2.39274L38.4138 2.61133ZM38.1267 3.74219L37.1712 3.44709L37.1674 3.46002L38.1267 3.74219ZM37.8865 4.46875L38.8205 4.82601L38.8228 4.81987L37.8865 4.46875ZM34.8689 9C34.9133 9 35.0412 9.00544 35.1947 9.08277C35.3714 9.17178 35.5216 9.32682 35.6026 9.52469C35.6737 9.69863 35.6655 9.84162 35.659 9.89786C35.6521 9.95724 35.6396 9.98415 35.6459 9.96751L33.7755 9.25905C33.7129 9.42442 33.571 9.8408 33.7515 10.282C34.0001 10.8897 34.5793 11 34.8689 11V9ZM35.6452 9.96934L38.5631 2.31113L36.6942 1.59902L33.7762 9.25723L35.6452 9.96934ZM38.5644 2.30788C38.5774 2.27338 38.5608 2.33879 38.4715 2.42139C38.423 2.46622 38.3556 2.51335 38.2692 2.54805C38.182 2.58304 38.0945 2.59766 38.0154 2.59766V0.597656C37.2267 0.597656 36.8411 1.20939 36.693 1.60227L38.5644 2.30788ZM38.0154 2.59766H38.8357V0.597656H38.0154V2.59766ZM38.8357 2.59766C38.7566 2.59766 38.6691 2.58304 38.5819 2.54805C38.4955 2.51335 38.4281 2.46622 38.3796 2.42139C38.2902 2.33879 38.2737 2.27338 38.2867 2.30788L40.1581 1.60227C40.01 1.20939 39.6243 0.597656 38.8357 0.597656V2.59766ZM38.288 2.31113L41.2059 9.96934L43.0749 9.25723L40.1569 1.59902L38.288 2.31113ZM41.2052 9.96751C41.2115 9.98415 41.199 9.95724 41.1921 9.89786C41.1856 9.84162 41.1774 9.69863 41.2485 9.52469C41.3295 9.32682 41.4797 9.17178 41.6564 9.08277C41.8099 9.00544 41.9378 9 41.9822 9V11C42.2718 11 42.851 10.8897 43.0996 10.282C43.2801 9.8408 43.1382 9.42442 43.0755 9.25905L41.2052 9.96751ZM41.9822 9H41.3845V11H41.9822V9ZM41.3845 9C41.4376 9 41.5578 9.01395 41.6864 9.10151C41.8157 9.18951 41.8743 9.29786 41.895 9.35136L40.0303 10.0744C40.1253 10.3193 40.2912 10.5712 40.5612 10.7549C40.8304 10.9382 41.1245 11 41.3845 11V9ZM41.8982 9.3596L41.1657 7.42015L39.2947 8.12673L40.0271 10.0662L41.8982 9.3596ZM40.2302 6.77344H36.6209V8.77344H40.2302V6.77344ZM35.6853 7.42015L34.9529 9.3596L36.8239 10.0662L37.5564 8.12673L35.6853 7.42015ZM34.9561 9.35136C34.9768 9.29786 35.0354 9.18951 35.1647 9.10151C35.2933 9.01395 35.4135 9 35.4666 9V11C35.7266 11 36.0206 10.9382 36.2899 10.7549C36.5599 10.5712 36.7258 10.3193 36.8208 10.0744L34.9561 9.35136ZM35.4666 9H34.8689V11H35.4666V9ZM36.99 7.8125H39.8611V5.8125H36.99V7.8125ZM40.7951 6.45524L39.8986 4.11149L38.0306 4.82601L38.9271 7.16976L40.7951 6.45524ZM39.9009 4.11763C39.827 3.92044 39.7512 3.69729 39.674 3.44711L37.763 4.03726C37.8498 4.31834 37.9382 4.57956 38.0283 4.81987L39.9009 4.11763ZM39.6779 3.46002C39.609 3.22576 39.5208 2.87372 39.4131 2.39274L37.4614 2.82991C37.5725 3.32549 37.6718 3.72737 37.7591 4.02435L39.6779 3.46002ZM38.4373 1.61133H38.4138V3.61133H38.4373V1.61133ZM37.438 2.39274C37.3306 2.87211 37.2417 3.21907 37.1712 3.44711L39.0822 4.03726C39.1758 3.73405 39.2783 3.32711 39.3896 2.82991L37.438 2.39274ZM37.1674 3.46002C37.0949 3.7065 37.0223 3.92526 36.9502 4.11763L38.8228 4.81987C38.9147 4.57474 39.0023 4.30912 39.0861 4.02435L37.1674 3.46002ZM36.9525 4.11149L36.056 6.45524L37.924 7.16976L38.8205 4.82601L36.9525 4.11149Z" fill="black" fill-opacity="0.2" mask="url(#path-1-outside-1_1669_162202)"/>
<path d="M2.12109 2.55859V1.55859H1.12109V2.55859H2.12109ZM2.12109 5.16016H1.12109V6.16016H2.12109V5.16016ZM2.12109 6.12109V5.12109H1.12109V6.12109H2.12109ZM2.12109 9.03906H1.12109V10.0391H2.12109V9.03906ZM1.28906 9C1.37141 9 1.60952 9.02703 1.80928 9.24676C1.99259 9.44841 1.99609 9.65334 1.99609 9.67773H-0.00390625C-0.00390625 9.91697 0.0484228 10.283 0.329396 10.5921C0.626806 10.9193 1.0114 11 1.28906 11V9ZM1.99609 9.67773V1.91992H-0.00390625V9.67773H1.99609ZM1.99609 1.91992C1.99609 1.94432 1.99259 2.14925 1.80928 2.3509C1.60952 2.57062 1.37141 2.59766 1.28906 2.59766V0.597656C1.0114 0.597656 0.626806 0.678399 0.329396 1.00555C0.0484228 1.31462 -0.00390625 1.68068 -0.00390625 1.91992H1.99609ZM1.28906 2.59766H6.41602V0.597656H1.28906V2.59766ZM6.41602 2.59766C6.41259 2.59766 6.22429 2.60101 6.02448 2.43753C5.78626 2.24263 5.73828 1.98647 5.73828 1.86133H7.73828C7.73828 1.5604 7.63659 1.17241 7.29095 0.889617C6.98372 0.638244 6.63429 0.597656 6.41602 0.597656V2.59766ZM5.73828 1.86133V2.29492H7.73828V1.86133H5.73828ZM5.73828 2.29492C5.73828 2.16978 5.78626 1.91362 6.02448 1.71872C6.22429 1.55524 6.41259 1.55859 6.41602 1.55859V3.55859C6.63429 3.55859 6.98372 3.51801 7.29095 3.26663C7.63659 2.98384 7.73828 2.59585 7.73828 2.29492H5.73828ZM6.41602 1.55859H2.12109V3.55859H6.41602V1.55859ZM1.12109 2.55859V5.16016H3.12109V2.55859H1.12109ZM2.12109 6.16016H6.06445V4.16016H2.12109V6.16016ZM6.06445 6.16016C6.06102 6.16016 5.87273 6.16351 5.67291 6.00003C5.4347 5.80513 5.38672 5.54897 5.38672 5.42383H7.38672C7.38672 5.1229 7.28503 4.73491 6.93939 4.45212C6.63216 4.20074 6.28273 4.16016 6.06445 4.16016V6.16016ZM5.38672 5.42383V5.85742H7.38672V5.42383H5.38672ZM5.38672 5.85742C5.38672 5.73228 5.4347 5.47612 5.67291 5.28122C5.87273 5.11774 6.06102 5.12109 6.06445 5.12109V7.12109C6.28273 7.12109 6.63216 7.08051 6.93939 6.82913C7.28503 6.54634 7.38672 6.15835 7.38672 5.85742H5.38672ZM6.06445 5.12109H2.12109V7.12109H6.06445V5.12109ZM1.12109 6.12109V9.03906H3.12109V6.12109H1.12109ZM2.12109 10.0391H6.5918V8.03906H2.12109V10.0391ZM6.5918 10.0391C6.58837 10.0391 6.40007 10.0424 6.20026 9.87894C5.96204 9.68403 5.91406 9.42788 5.91406 9.30273H7.91406C7.91406 9.00181 7.81237 8.61382 7.46673 8.33102C7.1595 8.07965 6.81007 8.03906 6.5918 8.03906V10.0391ZM5.91406 9.30273V9.73633H7.91406V9.30273H5.91406ZM5.91406 9.73633C5.91406 9.61119 5.96204 9.35503 6.20026 9.16012C6.40007 8.99664 6.58837 9 6.5918 9V11C6.81007 11 7.1595 10.9594 7.46673 10.708C7.81237 10.4252 7.91406 10.0373 7.91406 9.73633H5.91406ZM6.5918 9H1.28906V11H6.5918V9ZM13.6425 2.55859V1.55859H12.6425V2.55859H13.6425ZM13.6425 5.16016H12.6425V6.16016H13.6425V5.16016ZM13.6425 6.12109V5.12109H12.6425V6.12109H13.6425ZM13.6425 9.03906H12.6425V10.0391H13.6425V9.03906ZM12.8105 9C12.8928 9 13.1309 9.02703 13.3307 9.24676C13.514 9.44841 13.5175 9.65334 13.5175 9.67773H11.5175C11.5175 9.91697 11.5698 10.283 11.8508 10.5921C12.1482 10.9193 12.5328 11 12.8105 11V9ZM13.5175 9.67773V1.91992H11.5175V9.67773H13.5175ZM13.5175 1.91992C13.5175 1.94432 13.514 2.14925 13.3307 2.3509C13.1309 2.57062 12.8928 2.59766 12.8105 2.59766V0.597656C12.5328 0.597656 12.1482 0.678399 11.8508 1.00555C11.5698 1.31462 11.5175 1.68068 11.5175 1.91992H13.5175ZM12.8105 2.59766H17.9374V0.597656H12.8105V2.59766ZM17.9374 2.59766C17.934 2.59766 17.7457 2.60101 17.5459 2.43753C17.3077 2.24263 17.2597 1.98647 17.2597 1.86133H19.2597C19.2597 1.5604 19.158 1.17241 18.8124 0.889617C18.5051 0.638244 18.1557 0.597656 17.9374 0.597656V2.59766ZM17.2597 1.86133V2.29492H19.2597V1.86133H17.2597ZM17.2597 2.29492C17.2597 2.16978 17.3077 1.91362 17.5459 1.71872C17.7457 1.55524 17.934 1.55859 17.9374 1.55859V3.55859C18.1557 3.55859 18.5051 3.51801 18.8124 3.26663C19.158 2.98384 19.2597 2.59585 19.2597 2.29492H17.2597ZM17.9374 1.55859H13.6425V3.55859H17.9374V1.55859ZM12.6425 2.55859V5.16016H14.6425V2.55859H12.6425ZM13.6425 6.16016H17.5859V4.16016H13.6425V6.16016ZM17.5859 6.16016C17.5824 6.16016 17.3941 6.16351 17.1943 6.00003C16.9561 5.80513 16.9081 5.54897 16.9081 5.42383H18.9081C18.9081 5.1229 18.8064 4.73491 18.4608 4.45212C18.1536 4.20074 17.8041 4.16016 17.5859 4.16016V6.16016ZM16.9081 5.42383V5.85742H18.9081V5.42383H16.9081ZM16.9081 5.85742C16.9081 5.73228 16.9561 5.47612 17.1943 5.28122C17.3941 5.11774 17.5824 5.12109 17.5859 5.12109V7.12109C17.8041 7.12109 18.1536 7.08051 18.4608 6.82913C18.8064 6.54634 18.9081 6.15835 18.9081 5.85742H16.9081ZM17.5859 5.12109H13.6425V7.12109H17.5859V5.12109ZM12.6425 6.12109V9.03906H14.6425V6.12109H12.6425ZM13.6425 10.0391H18.1132V8.03906H13.6425V10.0391ZM18.1132 10.0391C18.1098 10.0391 17.9215 10.0424 17.7217 9.87894C17.4834 9.68403 17.4355 9.42788 17.4355 9.30273H19.4355C19.4355 9.00181 19.3338 8.61382 18.9881 8.33102C18.6809 8.07965 18.3315 8.03906 18.1132 8.03906V10.0391ZM17.4355 9.30273V9.73633H19.4355V9.30273H17.4355ZM17.4355 9.73633C17.4355 9.61119 17.4834 9.35503 17.7217 9.16012C17.9215 8.99664 18.1098 9 18.1132 9V11C18.3315 11 18.6809 10.9594 18.9881 10.708C19.3338 10.4252 19.4355 10.0373 19.4355 9.73633H17.4355ZM18.1132 9H12.8105V11H18.1132V9ZM24.0155 9.36719L24.6906 8.6295L24.6867 8.62598L24.0155 9.36719ZM23.8514 8.875L24.6728 9.4454L24.6732 9.44478L23.8514 8.875ZM24.1561 8.43555L24.9779 9.00533L24.9783 9.00476L24.1561 8.43555ZM24.6659 8.4707L24.0659 9.2707L24.0675 9.27192L24.6659 8.4707ZM25.6268 9.03906L25.2187 9.95199L25.2226 9.95375L25.6268 9.03906ZM28.3162 8.65234L27.5144 8.05486L27.5124 8.0575L28.3162 8.65234ZM28.4452 7.36914L27.4965 7.68537L27.5007 7.69819L27.5054 7.71088L28.4452 7.36914ZM27.742 6.6543L28.1595 5.74562L28.1592 5.74547L27.742 6.6543ZM26.6698 6.27344L26.3773 7.22973L26.3795 7.2304L26.6698 6.27344ZM25.4276 5.80469L24.9965 6.707L25.0003 6.70883L25.4276 5.80469ZM24.5838 5.19531L23.8289 5.85121L23.8351 5.85815L24.5838 5.19531ZM24.1678 4.46289L23.2004 4.71592L23.2027 4.7248L23.2052 4.73364L24.1678 4.46289ZM25.5623 1.59766L25.2947 0.634136L25.2924 0.634786L25.5623 1.59766ZM29.1248 2.11914L28.5426 2.93214L28.5451 2.93393L29.1248 2.11914ZM29.2655 2.57617L30.0853 3.14891L30.0913 3.14013L29.2655 2.57617ZM28.9666 3.00391L28.1469 2.4312L28.1462 2.43211L28.9666 3.00391ZM28.4393 2.92188L27.8626 3.73885L27.865 3.74053L28.4393 2.92188ZM27.7069 2.5293L27.3054 3.44517L27.3129 3.44846L27.3205 3.45163L27.7069 2.5293ZM25.9608 2.4707L26.2863 3.41624L26.2932 3.41387L26.3 3.41139L25.9608 2.4707ZM25.2401 4.04102L24.2639 4.25795L24.2652 4.26384L25.2401 4.04102ZM25.9491 4.79688L26.343 3.87773L26.3406 3.87672L25.9491 4.79688ZM27.0916 5.17188L26.8217 6.1348L26.8304 6.13714L27.0916 5.17188ZM28.451 5.69336L27.979 6.57497L27.9809 6.57598L28.451 5.69336ZM29.2245 6.29688L28.4209 6.8921L28.4271 6.90049L28.4335 6.90875L29.2245 6.29688ZM29.5936 6.97656L28.6495 7.30625L28.6527 7.31534L28.656 7.32437L29.5936 6.97656ZM24.6867 8.62598C24.6404 8.58399 24.7171 8.63508 24.7679 8.78729C24.797 8.87461 24.8157 8.99139 24.7969 9.12451C24.7781 9.258 24.7273 9.36681 24.6728 9.4454L23.03 8.3046C22.7992 8.63694 22.7446 9.04219 22.8705 9.41974C22.9759 9.73601 23.1835 9.96288 23.3442 10.1084L24.6867 8.62598ZM24.6732 9.44478L24.9779 9.00533L23.3343 7.86577L23.0296 8.30522L24.6732 9.44478ZM24.9783 9.00476C24.9292 9.07567 24.8413 9.17154 24.7021 9.24266C24.5588 9.31582 24.4134 9.33595 24.2938 9.32771C24.0925 9.31382 24.0048 9.22489 24.0659 9.2707L25.2659 7.6707C25.0926 7.54074 24.8027 7.35805 24.4314 7.33245C23.9589 7.29986 23.566 7.53107 23.3339 7.86634L24.9783 9.00476ZM24.0675 9.27192C24.4317 9.54394 24.8155 9.77173 25.2187 9.95199L26.0349 8.12614C25.7741 8.00952 25.5172 7.85841 25.2642 7.66949L24.0675 9.27192ZM25.2226 9.95375C25.7177 10.1725 26.2694 10.2617 26.8455 10.2617V8.26172C26.4685 8.26172 26.2077 8.20248 26.031 8.12438L25.2226 9.95375ZM26.8455 10.2617C27.2914 10.2617 27.733 10.1956 28.1354 10.0204L27.3369 8.18668C27.255 8.22236 27.1028 8.26172 26.8455 8.26172V10.2617ZM28.1354 10.0204C28.5239 9.85116 28.8623 9.59559 29.1201 9.24719L27.5124 8.0575C27.4812 8.09973 27.4328 8.14493 27.3369 8.18668L28.1354 10.0204ZM29.1181 9.24983C29.4119 8.85555 29.5389 8.39844 29.5389 7.93164H27.5389C27.5389 8.02734 27.5175 8.0507 27.5144 8.05486L29.1181 9.24983ZM29.5389 7.93164C29.5389 7.6248 29.4914 7.32025 29.3849 7.0274L27.5054 7.71088C27.5239 7.76178 27.5389 7.83224 27.5389 7.93164H29.5389ZM29.3938 7.05291C29.2822 6.71785 29.0909 6.41921 28.8197 6.17985L27.4964 7.67953C27.4967 7.67977 27.4961 7.67925 27.495 7.678C27.4939 7.67675 27.493 7.67545 27.4923 7.67439C27.4916 7.67335 27.4917 7.67328 27.4923 7.67464C27.493 7.67603 27.4945 7.67944 27.4965 7.68537L29.3938 7.05291ZM28.8197 6.17985C28.6219 6.00533 28.4022 5.85711 28.1595 5.74562L27.3245 7.56297C27.3709 7.5843 27.4286 7.61967 27.4964 7.67953L28.8197 6.17985ZM28.1592 5.74547C27.8581 5.60725 27.4487 5.46471 26.96 5.31648L26.3795 7.2304C26.8439 7.37123 27.1494 7.48259 27.3249 7.56313L28.1592 5.74547ZM26.9622 5.31715C26.5245 5.18331 26.1572 5.04346 25.8548 4.90055L25.0003 6.70883C25.4088 6.90186 25.8697 7.0745 26.3773 7.22973L26.9622 5.31715ZM25.8587 4.90238C25.6016 4.77955 25.4372 4.65067 25.3326 4.53247L23.8351 5.85815C24.1523 6.21652 24.5504 6.49389 24.9965 6.70699L25.8587 4.90238ZM25.3387 4.53944C25.208 4.38904 25.1531 4.27272 25.1305 4.19215L23.2052 4.73364C23.3231 5.15306 23.5456 5.52503 23.829 5.85118L25.3387 4.53944ZM25.1353 4.20986C25.0948 4.05525 25.0682 3.8537 25.0682 3.5957H23.0682C23.0682 3.98615 23.108 4.36272 23.2004 4.71592L25.1353 4.20986ZM25.0682 3.5957C25.0682 3.30911 25.146 3.10711 25.281 2.93926L23.7226 1.68574C23.2795 2.23664 23.0682 2.89011 23.0682 3.5957H25.0682ZM25.281 2.93926C25.4481 2.73149 25.6278 2.61785 25.8323 2.56053L25.2924 0.634786C24.6609 0.811834 24.1336 1.17476 23.7226 1.68574L25.281 2.93926ZM25.83 2.56117C26.1656 2.46796 26.5033 2.42188 26.8455 2.42188V0.421875C26.3206 0.421875 25.8029 0.492982 25.2947 0.634138L25.83 2.56117ZM26.8455 2.42188C27.2584 2.42188 27.5732 2.47591 27.8092 2.55878L28.4717 0.671689C27.9734 0.496751 27.4249 0.421875 26.8455 0.421875V2.42188ZM27.8092 2.55878C28.0953 2.65923 28.3375 2.78524 28.5426 2.93213L29.7071 1.30615C29.3341 1.03898 28.92 0.829054 28.4717 0.671689L27.8092 2.55878ZM28.5451 2.93393C28.5444 2.93341 28.538 2.92883 28.5277 2.91964C28.5174 2.91049 28.5016 2.89522 28.483 2.87314C28.4461 2.82934 28.3919 2.75078 28.3566 2.63588C28.3194 2.51522 28.3128 2.38532 28.3376 2.2614C28.3612 2.1434 28.4073 2.05964 28.4397 2.01221L30.0913 3.14013C30.2764 2.86902 30.4005 2.47806 30.2681 2.04771C30.1526 1.67224 29.8906 1.43672 29.7046 1.30435L28.5451 2.93393ZM28.4457 2.00346L28.1469 2.4312L29.7864 3.57661L30.0852 3.14888L28.4457 2.00346ZM28.1462 2.43211C28.2259 2.31789 28.3525 2.20359 28.526 2.13724C28.6915 2.07395 28.8356 2.07866 28.9211 2.09196C29.0613 2.11377 29.1038 2.16651 29.0136 2.10322L27.865 3.74053C28.0365 3.86083 28.2977 4.01904 28.6137 4.06819C28.7871 4.09516 29.0084 4.09402 29.2403 4.00534C29.4802 3.9136 29.6625 3.75438 29.787 3.5757L28.1462 2.43211ZM29.016 2.10491C28.7433 1.91244 28.4315 1.74863 28.0933 1.60696L27.3205 3.45163C27.5604 3.55215 27.7368 3.65006 27.8626 3.73884L29.016 2.10491ZM28.1084 1.61343C27.7102 1.43891 27.2908 1.3418 26.8573 1.3418V3.3418C26.9862 3.3418 27.1332 3.36968 27.3054 3.44517L28.1084 1.61343ZM26.8573 1.3418C26.4267 1.3418 26.0038 1.39214 25.6215 1.53001L26.3 3.41139C26.3943 3.37739 26.5691 3.3418 26.8573 3.3418V1.3418ZM25.6353 1.52517C25.2036 1.67378 24.8373 1.94277 24.5738 2.32674L26.2228 3.45842C26.2327 3.44395 26.2414 3.43169 26.2863 3.41624L25.6353 1.52517ZM24.5738 2.32674C24.3132 2.70648 24.1932 3.13789 24.1932 3.58398H26.1932C26.1932 3.50664 26.21 3.47711 26.2228 3.45842L24.5738 2.32674ZM24.1932 3.58398C24.1932 3.81114 24.2148 4.03707 24.2639 4.25795L26.2163 3.82409C26.2028 3.76372 26.1932 3.68496 26.1932 3.58398H24.1932ZM24.2652 4.26384C24.3457 4.61586 24.5335 4.90366 24.734 5.12851L26.2266 3.79728C26.2137 3.78277 26.2049 3.77166 26.1994 3.7641C26.1938 3.75654 26.192 3.7532 26.1926 3.75418C26.1936 3.75609 26.2057 3.77784 26.2149 3.81819L24.2652 4.26384ZM24.734 5.12851C24.964 5.38635 25.2426 5.58302 25.5575 5.71703L26.3406 3.87672C26.2884 3.85448 26.2545 3.82849 26.2266 3.79728L24.734 5.12851ZM25.5551 5.71602C25.864 5.84841 26.2968 5.98763 26.8217 6.13476L27.3615 4.20899C26.8552 4.06706 26.5263 3.95628 26.343 3.87773L25.5551 5.71602ZM26.8304 6.13714C27.2926 6.26224 27.6722 6.41071 27.979 6.57497L28.923 4.81175C28.4564 4.56195 27.9298 4.36276 27.3529 4.20661L26.8304 6.13714ZM27.9809 6.57598C28.2743 6.73221 28.3884 6.84824 28.4209 6.8921L30.028 5.70165C29.748 5.32363 29.3465 5.03732 28.9211 4.81074L27.9809 6.57598ZM28.4335 6.90875C28.528 7.03094 28.5992 7.16228 28.6495 7.30625L30.5377 6.64688C30.4161 6.29866 30.2412 5.97688 30.0154 5.685L28.4335 6.90875ZM28.656 7.32437C28.6979 7.43724 28.7284 7.59006 28.7284 7.79688H30.7284C30.7284 7.39432 30.669 7.00026 30.5312 6.62876L28.656 7.32437ZM28.7284 7.79688C28.7284 8.17346 28.6349 8.41067 28.5077 8.57624L30.0936 9.79485C30.5366 9.21823 30.7284 8.52967 30.7284 7.79688H28.7284ZM28.5077 8.57624C28.3227 8.81701 28.1328 8.94978 27.9399 9.02112L28.634 10.8968C29.2224 10.6791 29.7083 10.2963 30.0936 9.79485L28.5077 8.57624ZM27.9399 9.02112C27.6962 9.11131 27.333 9.17578 26.8162 9.17578V11.1758C27.4792 11.1758 28.0965 11.0957 28.634 10.8968L27.9399 9.02112ZM26.8162 9.17578C26.1776 9.17578 25.7137 9.1005 25.3913 8.9867L24.7256 10.8727C25.3329 11.087 26.0409 11.1758 26.8162 11.1758V9.17578ZM25.3913 8.9867C24.9881 8.8444 24.7813 8.71249 24.6906 8.62951L23.3403 10.1049C23.7106 10.4438 24.1991 10.6868 24.7256 10.8727L25.3913 8.9867ZM34.7107 9.61328L33.7762 9.25723L33.7755 9.25905L34.7107 9.61328ZM37.6287 1.95508L38.5631 2.31114L38.5644 2.30788L37.6287 1.95508ZM39.2224 1.95508L38.2867 2.30788L38.288 2.31113L39.2224 1.95508ZM42.1404 9.61328L43.0755 9.25905L43.0749 9.25723L42.1404 9.61328ZM40.9627 9.71289L40.0271 10.0662L40.0303 10.0744L40.9627 9.71289ZM40.2302 7.77344L41.1657 7.42015L40.9215 6.77344H40.2302V7.77344ZM36.6209 7.77344V6.77344H35.9296L35.6853 7.42015L36.6209 7.77344ZM35.8884 9.71289L36.8208 10.0744L36.8239 10.0662L35.8884 9.71289ZM36.99 6.8125L36.056 6.45524L35.5368 7.8125H36.99V6.8125ZM39.8611 6.8125V7.8125H41.3142L40.7951 6.45524L39.8611 6.8125ZM38.9646 4.46875L38.0283 4.81988L38.0306 4.82601L38.9646 4.46875ZM38.7185 3.74219L37.7591 4.02438L37.763 4.03726L38.7185 3.74219ZM38.4373 2.61133L39.4131 2.39274L39.238 1.61133H38.4373V2.61133ZM38.4138 2.61133V1.61133H37.613L37.438 2.39274L38.4138 2.61133ZM38.1267 3.74219L37.1712 3.44709L37.1674 3.46002L38.1267 3.74219ZM37.8865 4.46875L38.8205 4.82601L38.8228 4.81987L37.8865 4.46875ZM34.8689 9C34.9133 9 35.0412 9.00544 35.1947 9.08277C35.3714 9.17178 35.5216 9.32682 35.6026 9.52469C35.6737 9.69863 35.6655 9.84162 35.659 9.89786C35.6521 9.95724 35.6396 9.98415 35.6459 9.96751L33.7755 9.25905C33.7129 9.42442 33.571 9.8408 33.7515 10.282C34.0001 10.8897 34.5793 11 34.8689 11V9ZM35.6452 9.96934L38.5631 2.31113L36.6942 1.59902L33.7762 9.25723L35.6452 9.96934ZM38.5644 2.30788C38.5774 2.27338 38.5608 2.33879 38.4715 2.42139C38.423 2.46622 38.3556 2.51335 38.2692 2.54805C38.182 2.58304 38.0945 2.59766 38.0154 2.59766V0.597656C37.2267 0.597656 36.8411 1.20939 36.693 1.60227L38.5644 2.30788ZM38.0154 2.59766H38.8357V0.597656H38.0154V2.59766ZM38.8357 2.59766C38.7566 2.59766 38.6691 2.58304 38.5819 2.54805C38.4955 2.51335 38.4281 2.46622 38.3796 2.42139C38.2902 2.33879 38.2737 2.27338 38.2867 2.30788L40.1581 1.60227C40.01 1.20939 39.6243 0.597656 38.8357 0.597656V2.59766ZM38.288 2.31113L41.2059 9.96934L43.0749 9.25723L40.1569 1.59902L38.288 2.31113ZM41.2052 9.96751C41.2115 9.98415 41.199 9.95724 41.1921 9.89786C41.1856 9.84162 41.1774 9.69863 41.2485 9.52469C41.3295 9.32682 41.4797 9.17178 41.6564 9.08277C41.8099 9.00544 41.9378 9 41.9822 9V11C42.2718 11 42.851 10.8897 43.0996 10.282C43.2801 9.8408 43.1382 9.42442 43.0755 9.25905L41.2052 9.96751ZM41.9822 9H41.3845V11H41.9822V9ZM41.3845 9C41.4376 9 41.5578 9.01395 41.6864 9.10151C41.8157 9.18951 41.8743 9.29786 41.895 9.35136L40.0303 10.0744C40.1253 10.3193 40.2912 10.5712 40.5612 10.7549C40.8304 10.9382 41.1245 11 41.3845 11V9ZM41.8982 9.3596L41.1657 7.42015L39.2947 8.12673L40.0271 10.0662L41.8982 9.3596ZM40.2302 6.77344H36.6209V8.77344H40.2302V6.77344ZM35.6853 7.42015L34.9529 9.3596L36.8239 10.0662L37.5564 8.12673L35.6853 7.42015ZM34.9561 9.35136C34.9768 9.29786 35.0354 9.18951 35.1647 9.10151C35.2933 9.01395 35.4135 9 35.4666 9V11C35.7266 11 36.0206 10.9382 36.2899 10.7549C36.5599 10.5712 36.7258 10.3193 36.8208 10.0744L34.9561 9.35136ZM35.4666 9H34.8689V11H35.4666V9ZM36.99 7.8125H39.8611V5.8125H36.99V7.8125ZM40.7951 6.45524L39.8986 4.11149L38.0306 4.82601L38.9271 7.16976L40.7951 6.45524ZM39.9009 4.11763C39.827 3.92044 39.7512 3.69729 39.674 3.44711L37.763 4.03726C37.8498 4.31834 37.9382 4.57956 38.0283 4.81987L39.9009 4.11763ZM39.6779 3.46002C39.609 3.22576 39.5208 2.87372 39.4131 2.39274L37.4614 2.82991C37.5725 3.32549 37.6718 3.72737 37.7591 4.02435L39.6779 3.46002ZM38.4373 1.61133H38.4138V3.61133H38.4373V1.61133ZM37.438 2.39274C37.3306 2.87211 37.2417 3.21907 37.1712 3.44711L39.0822 4.03726C39.1758 3.73405 39.2783 3.32711 39.3896 2.82991L37.438 2.39274ZM37.1674 3.46002C37.0949 3.7065 37.0223 3.92526 36.9502 4.11763L38.8228 4.81987C38.9147 4.57474 39.0023 4.30912 39.0861 4.02435L37.1674 3.46002ZM36.9525 4.11149L36.056 6.45524L37.924 7.16976L38.8205 4.82601L36.9525 4.11149Z" fill="black" fill-opacity="0.2" mask="url(#path-1-outside-1_1669_162202)"/>
</svg>
